<svg version="1.2" baseProfile="tiny-ps" xmlns="http://www.w3.org/2000/svg" viewBox="0 0 330 69" width="330" height="69">
	<title>logo-kuzov-svg-svg</title>
	<style>
		tspan { white-space:pre }
		.shp0 { fill: #006cb1 } 
		.shp1 { fill: #e2001a } 
		.txt2 { font-size: 13px;fill: #000000;font-weight: 400;font-family: "LiberationSans", "Liberation Sans" } 
	</style>
	<path id="Layer" fill-rule="evenodd" class="shp0" d="M24.75 23.63L24.99 23.63L36.26 9.63L65.55 9.63L67.4 25.08L67.64 25.08L75.69 9.55L89.21 9.55L72.31 36.58C69.17 41.57 65.07 45.92 56.94 45.92C54.77 45.92 51.31 45.52 48.17 44.71L50.02 35.7C52.03 36.34 53.4 36.5 54.61 36.5C55.57 36.5 57.18 36.34 57.18 34.65C57.18 34.41 57.18 33.85 56.86 32.64L50.41 11.2L36.42 26.36L45.75 45.44L29.34 45.44L23.62 30.23L23.46 30.23L20.4 45.44L6 45.44L13.24 9.63L27.65 9.63L24.75 23.63ZM91.06 23.63L97.58 23.63C102.73 23.63 103.45 21.54 103.45 20.33C103.45 19.12 102.49 17.59 97.82 17.59C94.44 17.59 90.5 18.32 86.88 19.44L88.73 10.51C94.2 9.22 98.54 8.98 102.09 8.98C107.07 8.98 117.3 9.46 117.3 17.91C117.3 21.62 114.56 26.28 108.68 27.09L108.68 27.25C112.23 27.41 115.28 29.82 115.28 33.77C115.28 36.99 113.67 45.92 94.44 45.92C90.74 45.92 86.63 45.68 80.92 44.15L82.85 34.98C88.16 37.31 92.91 37.39 94.6 37.39C99.59 37.39 101.04 35.06 101.04 33.45C101.04 30.63 97.5 30.63 96.37 30.63L89.69 30.63L91.06 23.63ZM159.87 22.9C159.87 30.07 155.36 46 135.24 46C122.53 46 118.74 38.6 118.74 32.08C118.74 24.84 123.41 8.98 143.05 8.98C156.57 8.98 159.87 17.11 159.87 22.9ZM134.92 23.07C134.03 25.4 133.15 29.66 133.15 32.48C133.15 37.15 136.13 37.47 137.25 37.47C139.02 37.47 141.92 36.42 143.61 32C144.41 29.91 145.38 25.16 145.38 22.5C145.38 18.16 142.56 17.67 141.28 17.67C139.83 17.59 136.85 18.24 134.92 23.07ZM199.7 17.67C199.7 22.26 196 26.28 190.85 27.17L190.77 27.33C195.19 27.73 197.29 30.95 197.29 34.01C197.29 39.16 192.46 45.44 182 45.44L159.54 45.44L166.79 9.63L189.08 9.63C197.04 9.63 199.7 13.89 199.7 17.67ZM174.11 38.11L177.57 38.11C182.08 38.11 183.52 35.62 183.52 33.93C183.52 33.45 183.36 32.88 183.12 32.4C182.24 30.87 180.63 30.79 179.26 30.79L175.64 30.79L174.11 38.11ZM177.01 23.79L180.23 23.79C184.25 23.79 186.18 21.86 186.18 19.85C186.18 19.12 186.02 16.87 182 16.87L178.45 16.87L177.01 23.79Z" />
	<path id="Layer" fill-rule="evenodd" class="shp0" d="M15.81 59.43C15.81 59.51 15.81 59.51 15.74 59.51C15.74 59.51 15.66 59.58 15.59 59.58C15.51 59.58 15.44 59.58 15.36 59.66C15.29 59.66 15.13 59.66 15.06 59.66C14.91 59.66 14.83 59.66 14.76 59.66C14.68 59.66 14.61 59.66 14.61 59.58C14.53 59.58 14.53 59.51 14.53 59.51L14.53 59.43L15.13 56.41L11.81 56.41L11.21 59.43C11.21 59.51 11.21 59.51 11.13 59.51L11.06 59.58C10.98 59.58 10.91 59.58 10.83 59.66C10.76 59.66 10.6 59.66 10.53 59.66C10.38 59.66 10.3 59.66 10.23 59.66C10.15 59.66 10.08 59.66 10.08 59.58C10 59.58 10 59.51 10 59.51L10 59.43L11.36 52.56C11.36 52.48 11.36 52.48 11.43 52.48C11.43 52.48 11.51 52.41 11.59 52.41C11.66 52.41 11.74 52.33 11.81 52.33C11.89 52.33 11.96 52.33 12.11 52.33C12.27 52.33 12.34 52.33 12.42 52.33C12.49 52.33 12.57 52.33 12.64 52.41C12.72 52.41 12.72 52.48 12.72 52.48L12.72 52.56L12.19 55.35L15.59 55.35L16.12 52.56C16.12 52.48 16.12 52.48 16.19 52.48C16.19 52.48 16.27 52.41 16.34 52.41C16.42 52.41 16.49 52.33 16.57 52.33C16.64 52.33 16.8 52.33 16.87 52.33C17.02 52.33 17.1 52.33 17.17 52.33C17.25 52.33 17.32 52.33 17.32 52.41C17.4 52.41 17.4 52.48 17.4 52.48L17.4 52.56L15.81 59.43ZM23.89 59.43C23.89 59.51 23.82 59.58 23.74 59.58C23.67 59.58 23.52 59.66 23.29 59.66C23.21 59.66 23.06 59.66 23.06 59.66C22.99 59.66 22.91 59.66 22.91 59.66L22.84 59.58L22.84 59.51L23.06 58.22C22.99 58.37 22.91 58.6 22.68 58.75C22.53 58.98 22.31 59.13 22.08 59.28C21.85 59.43 21.55 59.58 21.33 59.66C20.95 59.73 20.65 59.81 20.34 59.81C19.97 59.81 19.59 59.73 19.36 59.58C19.06 59.43 18.91 59.28 18.76 58.98C18.61 58.75 18.46 58.45 18.46 58.15C18.38 57.85 18.38 57.54 18.38 57.24C18.38 56.94 18.38 56.64 18.46 56.26C18.53 55.88 18.61 55.5 18.68 55.13C18.83 54.75 18.99 54.37 19.14 53.99C19.36 53.62 19.59 53.31 19.82 53.01C20.12 52.71 20.42 52.48 20.8 52.33C21.17 52.18 21.55 52.11 22.01 52.11C22.46 52.11 22.84 52.18 23.14 52.41C23.44 52.56 23.74 52.86 24.04 53.16L24.2 52.48C24.2 52.41 24.27 52.33 24.35 52.33C24.42 52.26 24.57 52.26 24.8 52.26C24.87 52.26 25.03 52.26 25.03 52.26C25.1 52.26 25.18 52.26 25.18 52.33L25.25 52.41L25.25 52.48L23.89 59.43ZM23.67 54.37C23.44 53.99 23.14 53.77 22.91 53.54C22.61 53.39 22.31 53.31 22.01 53.31C21.7 53.31 21.48 53.39 21.25 53.54C21.02 53.69 20.8 53.84 20.65 54.07C20.5 54.3 20.34 54.52 20.19 54.82C20.04 55.13 19.97 55.35 19.89 55.66C19.82 55.96 19.74 56.26 19.74 56.49C19.74 56.79 19.66 57.01 19.66 57.24C19.66 57.39 19.66 57.62 19.74 57.77C19.74 57.92 19.82 58.07 19.89 58.22C19.97 58.37 20.04 58.52 20.19 58.6C20.34 58.68 20.5 58.75 20.72 58.75C21.02 58.75 21.25 58.68 21.55 58.52C21.85 58.37 22.08 58.15 22.31 57.85C22.53 57.54 22.76 57.24 22.99 56.86C23.21 56.49 23.29 56.11 23.44 55.66L23.67 54.37ZM32.58 62.07C32.58 62.07 32.5 62.07 32.43 62.07C32.35 62.07 32.27 62.07 32.2 62.07C32.12 62.07 32.05 62.07 31.97 62.07C31.9 62.07 31.82 62.07 31.82 62.07C31.75 62.07 31.75 62.07 31.75 62L31.75 61.92L32.2 59.58C31.97 59.58 31.75 59.58 31.59 59.51C31.44 59.43 31.29 59.36 31.22 59.2C31.14 59.05 31.07 58.9 31.07 58.75C31.07 58.52 31.07 58.37 31.14 58.15C31.07 58.37 30.92 58.52 30.76 58.75C30.61 58.98 30.39 59.13 30.16 59.28C29.93 59.43 29.71 59.58 29.4 59.66C29.1 59.73 28.8 59.81 28.57 59.81C28.2 59.81 27.97 59.73 27.67 59.66C27.44 59.58 27.22 59.43 27.06 59.28C26.91 59.13 26.84 58.9 26.76 58.68C26.69 58.45 26.69 58.22 26.69 57.92C26.69 57.77 26.69 57.62 26.69 57.39C26.69 57.24 26.76 57.01 26.76 56.86L27.59 52.56C27.59 52.48 27.59 52.48 27.67 52.48C27.67 52.48 27.74 52.41 27.82 52.41C27.89 52.41 27.97 52.33 28.05 52.33C28.12 52.33 28.27 52.33 28.35 52.33C28.5 52.33 28.57 52.33 28.65 52.33C28.73 52.33 28.8 52.33 28.8 52.41C28.88 52.41 28.88 52.48 28.88 52.48L28.88 52.56L28.05 56.86C28.05 57.01 27.97 57.17 27.97 57.32C27.97 57.47 27.97 57.62 27.97 57.69C27.97 57.85 27.97 58 28.05 58.07C28.05 58.22 28.12 58.3 28.2 58.37C28.27 58.45 28.35 58.52 28.42 58.6C28.57 58.68 28.65 58.68 28.8 58.68C29.1 58.68 29.33 58.6 29.63 58.45C29.93 58.3 30.16 58.07 30.46 57.77C30.69 57.47 30.92 57.17 31.14 56.79C31.37 56.41 31.52 55.96 31.59 55.5L32.2 52.56C32.2 52.48 32.2 52.48 32.27 52.48C32.27 52.48 32.35 52.41 32.43 52.41C32.5 52.41 32.58 52.33 32.65 52.33C32.73 52.33 32.8 52.33 32.95 52.33C33.1 52.33 33.18 52.33 33.26 52.33C33.33 52.33 33.41 52.33 33.41 52.41C33.48 52.41 33.48 52.48 33.48 52.48L33.48 52.56L32.5 57.62C32.27 57.85 32.27 58 32.27 58.07C32.27 58.22 32.27 58.3 32.35 58.37C32.43 58.45 32.5 58.45 32.58 58.52C32.73 58.52 32.88 58.6 33.03 58.6C33.18 58.6 33.26 58.6 33.26 58.68C33.26 58.75 33.26 58.83 33.26 58.9L32.73 62C32.65 62.07 32.58 62.07 32.58 62.07ZM40.35 59.43C40.35 59.51 40.35 59.51 40.28 59.51L40.2 59.58C40.13 59.58 40.13 59.58 40.05 59.58C39.98 59.58 39.9 59.58 39.75 59.58C39.67 59.58 39.52 59.58 39.52 59.58C39.45 59.58 39.37 59.58 39.37 59.58L39.3 59.51C39.3 59.43 39.3 59.43 39.3 59.43L39.52 58.15C39.45 58.3 39.3 58.52 39.15 58.68C38.99 58.83 38.77 59.05 38.54 59.2C38.31 59.36 38.01 59.51 37.79 59.58C37.41 59.73 37.11 59.81 36.8 59.81C36.43 59.81 36.2 59.73 35.9 59.66C35.67 59.58 35.45 59.43 35.29 59.28C35.14 59.13 35.07 58.9 34.99 58.68C34.92 58.45 34.92 58.22 34.92 57.92C34.92 57.77 34.92 57.54 34.92 57.39C34.92 57.24 34.99 57.01 34.99 56.86L35.82 52.56C35.82 52.48 35.9 52.48 35.9 52.48C35.9 52.48 35.97 52.41 36.05 52.41C36.12 52.41 36.2 52.33 36.28 52.33C36.35 52.33 36.5 52.33 36.58 52.33C36.65 52.33 36.8 52.33 36.88 52.33C36.96 52.33 37.03 52.33 37.11 52.41C37.18 52.41 37.18 52.48 37.18 52.48L37.18 52.56L36.35 56.86C36.35 57.01 36.28 57.17 36.28 57.24C36.28 57.39 36.28 57.54 36.28 57.69C36.28 57.85 36.28 58 36.35 58.07C36.35 58.22 36.43 58.3 36.5 58.37C36.58 58.45 36.65 58.52 36.73 58.6C36.88 58.68 36.96 58.68 37.11 58.68C37.33 58.68 37.64 58.6 37.94 58.45C38.24 58.3 38.47 58.07 38.69 57.77C38.92 57.47 39.15 57.17 39.37 56.79C39.6 56.41 39.67 55.96 39.82 55.5L40.43 52.48C40.43 52.41 40.43 52.41 40.5 52.41C40.5 52.41 40.58 52.33 40.66 52.33C40.73 52.33 40.81 52.26 40.88 52.26C40.96 52.26 41.03 52.26 41.18 52.26C41.33 52.26 41.41 52.26 41.49 52.26C41.56 52.26 41.64 52.26 41.64 52.33L41.71 52.41L41.71 52.48L40.35 59.43ZM49.64 54.82C49.64 55.2 49.64 55.58 49.57 55.96C49.49 56.34 49.41 56.71 49.26 57.09C49.11 57.47 48.96 57.77 48.73 58.15C48.51 58.45 48.28 58.75 47.9 58.98C47.6 59.2 47.22 59.43 46.85 59.58C46.47 59.73 46.02 59.81 45.56 59.81C45.03 59.81 44.66 59.73 44.28 59.66C43.9 59.51 43.6 59.36 43.45 59.13C43.22 58.9 43.07 58.6 42.92 58.3C42.84 58 42.77 57.62 42.77 57.17C42.77 56.79 42.77 56.41 42.84 56.03C42.92 55.66 43 55.28 43.15 54.9C43.3 54.52 43.45 54.22 43.68 53.84C43.9 53.54 44.13 53.24 44.43 53.01C44.73 52.79 45.11 52.56 45.49 52.48C45.87 52.33 46.32 52.26 46.77 52.26C47.3 52.26 47.68 52.33 48.05 52.41C48.43 52.56 48.73 52.71 48.89 52.94C49.11 53.16 49.26 53.47 49.41 53.77C49.57 54.07 49.64 54.45 49.64 54.82ZM48.28 54.9C48.28 54.67 48.28 54.45 48.21 54.22C48.13 53.99 48.05 53.84 47.9 53.69C47.75 53.54 47.6 53.47 47.45 53.39C47.22 53.31 47 53.31 46.7 53.31C46.39 53.31 46.09 53.39 45.87 53.47C45.64 53.54 45.41 53.69 45.19 53.92C44.96 54.15 44.81 54.3 44.66 54.6C44.51 54.82 44.43 55.13 44.28 55.43C44.2 55.73 44.13 56.03 44.05 56.34C43.98 56.64 43.98 56.94 43.98 57.24C43.98 57.47 43.98 57.69 44.05 57.92C44.13 58.15 44.2 58.3 44.36 58.45C44.51 58.6 44.66 58.68 44.81 58.75C45.03 58.83 45.26 58.83 45.56 58.83C45.87 58.83 46.17 58.75 46.39 58.68C46.62 58.52 46.85 58.45 47.07 58.22C47.3 58.07 47.45 57.85 47.6 57.54C47.75 57.32 47.9 57.01 47.98 56.71C48.05 56.41 48.13 56.11 48.21 55.81C48.28 55.5 48.28 55.2 48.28 54.9ZM56.59 59.43C56.59 59.51 56.59 59.51 56.51 59.51C56.51 59.51 56.44 59.58 56.36 59.58C56.29 59.58 56.21 59.58 56.13 59.66C56.06 59.66 55.91 59.66 55.83 59.66C55.68 59.66 55.61 59.66 55.53 59.66C55.45 59.66 55.38 59.66 55.38 59.58C55.3 59.58 55.3 59.51 55.3 59.51L55.3 59.43L55.91 56.41L52.51 56.41L51.91 59.43C51.91 59.51 51.91 59.51 51.83 59.51L51.75 59.58C51.68 59.58 51.6 59.58 51.53 59.66C51.45 59.66 51.38 59.66 51.23 59.66C51.08 59.66 51 59.66 50.92 59.66C50.85 59.66 50.77 59.66 50.77 59.58C50.7 59.58 50.7 59.51 50.7 59.51L50.7 59.43L52.06 52.56C52.06 52.48 52.06 52.48 52.13 52.48L52.21 52.41C52.28 52.41 52.36 52.33 52.43 52.33C52.51 52.33 52.66 52.33 52.74 52.33C52.89 52.33 52.96 52.33 53.04 52.33C53.11 52.33 53.19 52.33 53.19 52.41C53.26 52.41 53.26 52.48 53.26 52.48L53.26 52.56L52.74 55.35L56.13 55.35L56.66 52.56C56.66 52.48 56.66 52.48 56.74 52.48C56.74 52.48 56.81 52.41 56.89 52.41C56.96 52.41 57.04 52.33 57.12 52.33C57.19 52.33 57.34 52.33 57.42 52.33C57.49 52.33 57.64 52.33 57.72 52.33C57.8 52.33 57.87 52.33 57.87 52.41C57.95 52.41 57.95 52.48 57.95 52.48L57.95 52.56L56.59 59.43ZM64.67 59.43C64.67 59.51 64.59 59.58 64.52 59.58C64.44 59.58 64.29 59.66 64.06 59.66C63.99 59.66 63.84 59.66 63.84 59.66C63.76 59.66 63.68 59.66 63.68 59.66L63.61 59.58L63.61 59.51L63.84 58.22C63.76 58.37 63.68 58.6 63.46 58.75C63.31 58.98 63.08 59.13 62.85 59.28C62.63 59.43 62.33 59.58 62.1 59.66C61.72 59.73 61.42 59.81 61.12 59.81C60.74 59.81 60.36 59.73 60.14 59.58C59.91 59.43 59.68 59.28 59.53 58.98C59.38 58.75 59.23 58.45 59.23 58.15C59.15 57.85 59.15 57.54 59.15 57.24C59.15 56.94 59.23 56.64 59.23 56.26C59.31 55.88 59.38 55.5 59.46 55.13C59.61 54.75 59.76 54.37 59.91 53.99C60.14 53.62 60.36 53.31 60.59 53.01C60.82 52.71 61.19 52.48 61.49 52.33C61.87 52.18 62.25 52.11 62.7 52.11C63.16 52.11 63.53 52.18 63.84 52.41C64.14 52.56 64.44 52.86 64.74 53.16L64.89 52.48C64.89 52.41 64.97 52.33 65.04 52.33C65.12 52.26 65.27 52.26 65.5 52.26C65.57 52.26 65.72 52.26 65.72 52.26C65.8 52.26 65.87 52.26 65.87 52.33L65.95 52.41L65.95 52.48L64.67 59.43ZM64.44 54.37C64.21 53.99 63.91 53.77 63.68 53.54C63.38 53.39 63.08 53.31 62.78 53.31C62.48 53.31 62.25 53.39 62.02 53.54C61.8 53.69 61.57 53.84 61.42 54.07C61.27 54.3 61.12 54.52 60.97 54.82C60.82 55.13 60.74 55.35 60.66 55.66C60.59 55.96 60.51 56.26 60.51 56.49C60.51 56.79 60.44 57.01 60.44 57.24C60.44 57.39 60.44 57.62 60.51 57.77C60.51 57.92 60.59 58.07 60.66 58.22C60.74 58.37 60.89 58.52 60.97 58.6C61.12 58.68 61.27 58.75 61.49 58.75C61.8 58.75 62.02 58.68 62.33 58.52C62.63 58.37 62.85 58.15 63.08 57.85C63.31 57.54 63.53 57.24 63.76 56.86C63.91 56.49 64.06 56.11 64.21 55.66L64.44 54.37ZM72.67 59.43C72.67 59.43 72.67 59.51 72.59 59.51C72.59 59.51 72.52 59.58 72.44 59.58C72.37 59.58 72.29 59.58 72.22 59.66C72.14 59.66 72.07 59.66 71.91 59.66C71.76 59.66 71.69 59.66 71.61 59.66C71.54 59.66 71.46 59.66 71.39 59.58C71.31 59.58 71.31 59.51 71.31 59.51L71.31 59.43L72.52 53.39L72.37 53.39C71.91 53.39 71.46 53.47 71.08 53.54C70.78 53.69 70.4 53.84 70.18 54.07C69.95 54.3 69.73 54.67 69.57 55.05C69.42 55.43 69.27 55.88 69.12 56.41C69.05 56.86 68.89 57.32 68.82 57.69C68.67 58.07 68.59 58.37 68.44 58.6C68.29 58.83 68.14 59.05 67.99 59.2C67.84 59.36 67.69 59.43 67.54 59.51C67.31 59.58 67.16 59.66 66.93 59.66C66.7 59.66 66.48 59.66 66.18 59.66C66.1 59.66 66.03 59.66 65.95 59.58C65.87 59.58 65.87 59.51 65.87 59.36C65.87 59.36 65.87 59.28 65.87 59.2C65.87 59.13 65.87 59.13 65.87 59.05C65.87 58.98 65.87 58.9 65.95 58.83C65.95 58.75 66.03 58.68 66.03 58.6C66.03 58.52 66.1 58.52 66.18 58.45C66.18 58.45 66.25 58.37 66.33 58.37C66.55 58.37 66.78 58.37 66.93 58.3C67.08 58.22 67.23 58.15 67.31 58C67.46 57.85 67.54 57.62 67.61 57.32C67.69 57.01 67.84 56.56 67.91 56.03C68.06 55.43 68.21 54.9 68.44 54.45C68.67 53.92 68.97 53.54 69.27 53.24C69.65 52.86 70.1 52.64 70.63 52.41C71.16 52.26 71.84 52.11 72.59 52.11C72.75 52.11 72.9 52.11 73.12 52.11C73.35 52.11 73.5 52.11 73.65 52.11C73.8 52.11 73.88 52.18 73.95 52.26C74.03 52.33 74.03 52.41 73.95 52.56L72.67 59.43ZM81.13 56.79C81.13 57.32 81.05 57.69 80.82 58.07C80.67 58.45 80.37 58.75 80.07 58.98C79.77 59.2 79.39 59.43 79.01 59.58C78.63 59.73 78.18 59.81 77.73 59.81C77.28 59.81 76.82 59.73 76.52 59.58C76.22 59.43 75.92 59.28 75.77 59.05C75.61 58.83 75.46 58.52 75.39 58.22C75.31 57.92 75.39 57.54 75.46 57.09L76.37 52.56C76.37 52.48 76.37 52.48 76.45 52.48C76.45 52.48 76.52 52.41 76.6 52.41C76.67 52.41 76.75 52.33 76.82 52.33C76.9 52.33 77.05 52.33 77.12 52.33C77.28 52.33 77.35 52.33 77.43 52.33C77.5 52.33 77.58 52.33 77.58 52.41L77.65 52.48L77.65 52.56L77.2 54.98C77.43 54.9 77.65 54.9 77.88 54.82C78.11 54.82 78.41 54.75 78.63 54.75C79.01 54.75 79.39 54.82 79.69 54.9C79.99 54.98 80.3 55.13 80.52 55.28C80.75 55.43 80.9 55.66 81.05 55.88C81.05 56.18 81.13 56.49 81.13 56.79ZM79.77 56.94C79.77 56.79 79.77 56.64 79.69 56.49C79.62 56.34 79.54 56.26 79.39 56.11C79.24 56.03 79.09 55.96 78.94 55.88C78.71 55.81 78.56 55.81 78.33 55.81C78.11 55.81 77.8 55.81 77.58 55.88C77.35 55.88 77.12 55.96 76.9 56.03L76.67 57.17C76.52 57.69 76.6 58.15 76.82 58.45C77.05 58.75 77.35 58.83 77.88 58.83C78.18 58.83 78.41 58.75 78.63 58.68C78.86 58.6 79.09 58.45 79.24 58.3C79.39 58.15 79.54 57.92 79.62 57.69C79.69 57.47 79.77 57.17 79.77 56.94ZM88.22 59.43C88.22 59.51 88.22 59.51 88.15 59.51C88.15 59.51 88.07 59.58 88 59.58C87.92 59.58 87.85 59.58 87.77 59.66C87.7 59.66 87.62 59.66 87.47 59.66C87.32 59.66 87.24 59.66 87.17 59.66C87.09 59.66 87.02 59.66 86.94 59.58C86.86 59.58 86.86 59.51 86.86 59.51L86.86 59.43L87.47 56.41L84.07 56.41L83.47 59.43C83.47 59.51 83.47 59.51 83.39 59.51C83.39 59.51 83.32 59.58 83.24 59.58C83.17 59.58 83.09 59.58 83.01 59.66C82.94 59.66 82.79 59.66 82.71 59.66C82.56 59.66 82.49 59.66 82.41 59.66C82.33 59.66 82.26 59.66 82.18 59.58C82.11 59.58 82.11 59.51 82.11 59.51L82.11 59.43L83.47 52.56C83.47 52.48 83.47 52.48 83.54 52.48C83.54 52.48 83.62 52.41 83.69 52.41C83.77 52.41 83.84 52.33 83.92 52.33C84 52.33 84.15 52.33 84.22 52.33C84.37 52.33 84.45 52.33 84.52 52.33C84.6 52.33 84.68 52.33 84.68 52.41C84.75 52.41 84.75 52.48 84.75 52.48L84.75 52.56L84.37 55.35L87.77 55.35L88.3 52.56C88.3 52.48 88.3 52.48 88.37 52.48C88.37 52.48 88.45 52.41 88.53 52.41C88.6 52.41 88.68 52.33 88.75 52.33C88.83 52.33 88.9 52.33 89.05 52.33C89.21 52.33 89.28 52.33 89.36 52.33C89.43 52.33 89.51 52.33 89.51 52.41C89.58 52.41 89.58 52.48 89.58 52.48L89.58 52.56L88.22 59.43ZM96.23 59.43C96.23 59.51 96.15 59.58 96.08 59.58C96 59.58 95.85 59.66 95.62 59.66C95.55 59.66 95.4 59.66 95.4 59.66C95.32 59.66 95.25 59.66 95.25 59.66C95.17 59.66 95.17 59.58 95.17 59.58L95.17 59.51L95.4 58.22C95.32 58.37 95.17 58.6 95.02 58.75C94.87 58.98 94.64 59.13 94.42 59.28C94.19 59.43 93.89 59.58 93.66 59.66C93.36 59.73 93.06 59.81 92.75 59.81C92.38 59.81 92 59.73 91.77 59.58C91.47 59.43 91.32 59.28 91.09 58.98C90.94 58.75 90.87 58.45 90.79 58.15C90.72 57.85 90.72 57.54 90.72 57.24C90.72 56.94 90.72 56.64 90.79 56.26C90.87 55.88 90.94 55.5 91.02 55.13C91.17 54.75 91.32 54.37 91.47 53.99C91.7 53.62 91.92 53.31 92.15 53.01C92.45 52.71 92.75 52.48 93.06 52.33C93.43 52.18 93.81 52.11 94.26 52.11C94.72 52.11 95.09 52.18 95.4 52.41C95.7 52.56 96 52.86 96.3 53.16L96.45 52.48C96.45 52.41 96.53 52.33 96.61 52.33C96.68 52.26 96.83 52.26 97.06 52.26C97.13 52.26 97.28 52.26 97.36 52.26C97.44 52.26 97.44 52.26 97.51 52.33C97.59 52.33 97.59 52.41 97.59 52.41L97.59 52.48L96.23 59.43ZM96 54.37C95.77 53.99 95.47 53.77 95.25 53.54C94.94 53.39 94.64 53.31 94.34 53.31C94.04 53.31 93.81 53.39 93.58 53.54C93.36 53.69 93.13 53.84 92.98 54.07C92.83 54.3 92.68 54.52 92.53 54.82C92.38 55.13 92.3 55.35 92.23 55.66C92.15 55.96 92.07 56.26 92.07 56.49C92.07 56.79 92 57.01 92 57.24C92 57.39 92 57.62 92.07 57.77C92.07 57.92 92.15 58.07 92.23 58.22C92.3 58.37 92.45 58.52 92.53 58.6C92.68 58.68 92.83 58.75 93.06 58.75C93.36 58.75 93.58 58.68 93.89 58.52C94.19 58.37 94.42 58.15 94.72 57.85C94.94 57.54 95.17 57.24 95.4 56.86C95.62 56.49 95.7 56.11 95.85 55.66L96 54.37ZM103.7 59.43C103.7 59.51 103.7 59.51 103.63 59.51L103.55 59.58C103.48 59.58 103.4 59.58 103.33 59.58C103.25 59.58 103.1 59.58 103.02 59.58C102.95 59.58 102.8 59.58 102.72 59.58C102.65 59.58 102.57 59.58 102.57 59.58C102.49 59.58 102.49 59.51 102.49 59.51C102.49 59.43 102.49 59.43 102.49 59.43L103.1 56.56L102.19 56.56C101.97 56.56 101.66 56.56 101.51 56.64C101.29 56.71 101.14 56.79 100.98 56.94C100.83 57.09 100.68 57.24 100.61 57.39C100.46 57.54 100.38 57.69 100.3 57.92L99.47 59.43C99.4 59.51 99.4 59.58 99.32 59.58C99.25 59.66 99.25 59.66 99.17 59.66C99.1 59.66 99.02 59.66 98.95 59.66C98.87 59.66 98.72 59.66 98.57 59.66C98.49 59.66 98.34 59.66 98.27 59.66C98.19 59.66 98.12 59.66 98.12 59.66L97.96 59.51C97.96 59.51 97.96 59.51 97.96 59.43C97.96 59.43 97.96 59.36 98.04 59.36C98.04 59.28 98.12 59.28 98.12 59.2C98.19 59.13 98.19 59.05 98.27 58.9L99.1 57.54C99.32 57.17 99.55 56.86 99.78 56.64C100 56.41 100.3 56.26 100.53 56.18C100.08 56.11 99.78 55.88 99.55 55.66C99.32 55.43 99.25 55.13 99.25 54.75C99.25 54.6 99.25 54.37 99.32 54.22C99.4 53.99 99.47 53.84 99.55 53.62C99.63 53.39 99.78 53.24 100 53.09C100.15 52.94 100.38 52.79 100.68 52.64C100.98 52.48 101.29 52.41 101.59 52.33C101.97 52.26 102.34 52.26 102.8 52.26C102.95 52.26 103.1 52.26 103.25 52.26C103.4 52.26 103.55 52.26 103.7 52.26C103.85 52.26 104 52.26 104.16 52.26C104.31 52.26 104.46 52.26 104.61 52.33C104.76 52.33 104.84 52.41 104.91 52.48C104.99 52.56 104.99 52.71 104.99 52.86L103.7 59.43ZM103.63 53.31C103.48 53.31 103.25 53.24 103.1 53.24C102.87 53.24 102.72 53.24 102.57 53.24C102.12 53.24 101.74 53.31 101.51 53.39C101.21 53.47 101.06 53.62 100.83 53.77C100.68 53.92 100.61 54.07 100.53 54.22C100.46 54.37 100.46 54.52 100.46 54.75C100.46 54.9 100.46 55.05 100.53 55.13C100.61 55.2 100.68 55.35 100.76 55.43C100.91 55.5 101.06 55.58 101.21 55.58C101.44 55.58 101.66 55.66 101.89 55.66L103.1 55.66L103.63 53.31ZM115.63 53.16C115.63 53.24 115.63 53.39 115.63 53.47C115.63 53.54 115.56 53.69 115.56 53.77C115.56 53.84 115.48 53.92 115.41 53.99C115.33 54.07 115.33 54.07 115.25 54.07C115.18 54.07 115.1 53.99 115.03 53.92C114.95 53.84 114.88 53.77 114.73 53.69C114.58 53.62 114.42 53.54 114.27 53.47C114.05 53.39 113.82 53.39 113.52 53.39C113.22 53.39 112.91 53.47 112.61 53.62C112.39 53.77 112.16 53.92 111.93 54.15C111.71 54.37 111.56 54.6 111.48 54.9C111.33 55.2 111.25 55.43 111.18 55.73C111.1 56.03 111.03 56.26 111.03 56.56C111.03 56.86 110.95 57.01 110.95 57.24C110.95 57.77 111.1 58.15 111.33 58.45C111.56 58.75 111.86 58.83 112.31 58.83C112.61 58.83 112.91 58.75 113.14 58.68C113.37 58.6 113.59 58.52 113.74 58.37C113.9 58.3 114.05 58.15 114.2 58.07C114.27 58 114.42 57.92 114.5 57.92C114.58 57.92 114.58 57.92 114.58 58C114.58 58.07 114.58 58.07 114.58 58.15C114.58 58.22 114.58 58.3 114.58 58.37C114.58 58.45 114.58 58.52 114.5 58.6C114.5 58.68 114.42 58.75 114.42 58.83C114.42 58.9 114.35 58.98 114.27 59.05C114.2 59.13 114.12 59.2 113.97 59.28C113.82 59.36 113.67 59.43 113.44 59.51C113.22 59.58 112.99 59.66 112.76 59.66C112.54 59.73 112.31 59.73 112.01 59.73C111.18 59.73 110.57 59.51 110.2 59.13C109.82 58.75 109.59 58.07 109.59 57.24C109.59 56.94 109.59 56.56 109.67 56.26C109.74 55.88 109.82 55.5 109.97 55.13C110.12 54.75 110.27 54.37 110.42 54.07C110.65 53.69 110.88 53.39 111.18 53.16C111.48 52.86 111.78 52.71 112.16 52.48C112.54 52.33 112.99 52.26 113.44 52.26C113.67 52.26 113.82 52.26 114.05 52.33C114.27 52.33 114.42 52.41 114.58 52.48C114.73 52.56 114.88 52.64 115.03 52.71C115.18 52.79 115.25 52.86 115.33 52.94C115.41 53.01 115.48 53.09 115.48 53.09C115.56 53.09 115.63 53.09 115.63 53.16ZM122.65 53.99C122.65 54.37 122.58 54.67 122.43 54.9C122.28 55.2 121.97 55.43 121.67 55.66C121.3 55.88 120.92 56.03 120.31 56.11C119.79 56.18 119.11 56.26 118.35 56.26L117.6 56.26C117.6 56.41 117.52 56.56 117.52 56.71C117.52 56.86 117.52 57.01 117.52 57.17C117.52 57.69 117.67 58.07 117.9 58.37C118.12 58.6 118.58 58.75 119.11 58.75C119.41 58.75 119.71 58.75 120.01 58.68C120.24 58.6 120.46 58.6 120.69 58.52C120.92 58.45 121.07 58.45 121.14 58.37C121.3 58.3 121.37 58.3 121.37 58.3C121.45 58.3 121.45 58.3 121.45 58.37C121.45 58.37 121.45 58.45 121.45 58.52C121.45 58.6 121.45 58.6 121.45 58.68C121.45 58.75 121.45 58.83 121.37 58.9C121.37 58.98 121.3 59.05 121.3 59.13C121.3 59.2 121.22 59.28 121.14 59.28C121.07 59.36 120.99 59.36 120.84 59.43C120.69 59.51 120.54 59.58 120.31 59.58C120.09 59.66 119.86 59.66 119.63 59.73C119.41 59.73 119.11 59.81 118.88 59.81C118.43 59.81 118.05 59.73 117.67 59.66C117.37 59.58 117.07 59.43 116.84 59.2C116.61 58.98 116.46 58.75 116.31 58.45C116.24 58.15 116.16 57.77 116.16 57.32C116.16 57.01 116.16 56.64 116.24 56.26C116.31 55.88 116.39 55.5 116.54 55.13C116.69 54.75 116.84 54.37 117.07 54.07C117.29 53.69 117.52 53.39 117.82 53.16C118.12 52.94 118.5 52.71 118.88 52.56C119.26 52.41 119.71 52.33 120.24 52.33C120.69 52.33 121.07 52.41 121.37 52.48C121.67 52.56 121.9 52.71 122.13 52.94C122.35 53.09 122.43 53.31 122.58 53.47C122.58 53.54 122.65 53.77 122.65 53.99ZM121.37 54.07C121.37 53.84 121.3 53.62 121.07 53.47C120.84 53.31 120.54 53.24 120.16 53.24C119.86 53.24 119.56 53.31 119.26 53.39C119.03 53.54 118.8 53.62 118.58 53.84C118.35 53.99 118.2 54.3 118.05 54.52C117.9 54.75 117.82 55.05 117.75 55.35L118.5 55.35C119.03 55.35 119.48 55.35 119.86 55.28C120.24 55.2 120.54 55.13 120.77 54.98C120.99 54.82 121.14 54.75 121.22 54.6C121.3 54.45 121.37 54.22 121.37 54.07ZM133.68 59.43C133.68 59.51 133.68 59.51 133.6 59.51C133.6 59.51 133.53 59.58 133.45 59.58C133.38 59.58 133.3 59.58 133.23 59.66C133.15 59.66 133 59.66 132.92 59.66C132.77 59.66 132.7 59.66 132.62 59.66C132.55 59.66 132.47 59.66 132.47 59.58C132.39 59.58 132.39 59.51 132.39 59.51L132.39 59.43L133.23 55.2C133.23 55.05 133.3 54.9 133.3 54.82C133.3 54.67 133.3 54.52 133.3 54.45C133.3 54.15 133.23 53.84 133.15 53.69C133 53.47 132.77 53.39 132.47 53.39C132.24 53.39 131.94 53.47 131.72 53.62C131.41 53.77 131.19 53.99 130.96 54.3C130.73 54.6 130.51 54.9 130.28 55.28C130.05 55.66 129.98 56.03 129.83 56.49L129.22 59.58C129.22 59.66 129.22 59.66 129.15 59.66C129.15 59.66 129.07 59.73 129 59.73C128.92 59.73 128.85 59.73 128.77 59.81C128.7 59.81 128.54 59.81 128.47 59.81C128.32 59.81 128.24 59.81 128.17 59.81C128.09 59.81 128.02 59.81 128.02 59.73C127.94 59.73 127.94 59.66 127.94 59.66L127.94 59.58L128.77 55.35C128.77 55.2 128.85 55.05 128.85 54.9C128.85 54.75 128.85 54.6 128.85 54.45C128.85 54.15 128.77 53.92 128.62 53.69C128.47 53.54 128.24 53.39 127.94 53.39C127.71 53.39 127.41 53.47 127.11 53.62C126.88 53.77 126.58 53.99 126.35 54.3C126.13 54.6 125.9 54.9 125.67 55.28C125.45 55.66 125.37 56.03 125.3 56.49L124.69 59.58C124.69 59.66 124.69 59.66 124.62 59.66L124.54 59.73C124.47 59.73 124.39 59.73 124.32 59.81C124.24 59.81 124.16 59.81 124.01 59.81C123.86 59.81 123.79 59.81 123.71 59.81C123.64 59.81 123.56 59.81 123.49 59.73L123.41 59.66L123.41 59.58L124.77 52.71C124.77 52.64 124.77 52.64 124.84 52.64L124.92 52.56C125 52.56 125 52.48 125.07 52.48C125.15 52.48 125.22 52.48 125.3 52.48C125.37 52.48 125.52 52.48 125.52 52.48C125.6 52.48 125.67 52.48 125.67 52.56L125.75 52.64L125.75 52.71L125.52 53.99C125.6 53.84 125.75 53.62 125.9 53.47C126.05 53.24 126.28 53.09 126.51 52.94C126.73 52.79 127.03 52.64 127.26 52.56C127.56 52.48 127.79 52.41 128.09 52.41C128.39 52.41 128.7 52.48 128.85 52.56C129.07 52.64 129.22 52.79 129.37 52.94C129.53 53.09 129.6 53.24 129.68 53.47C129.75 53.69 129.75 53.92 129.83 54.15C129.9 53.99 130.05 53.77 130.21 53.62C130.36 53.39 130.58 53.24 130.81 53.09C131.04 52.94 131.26 52.79 131.56 52.71C131.87 52.64 132.09 52.56 132.39 52.56C132.7 52.56 133 52.64 133.23 52.71C133.45 52.79 133.68 52.94 133.75 53.09C133.9 53.24 133.98 53.47 134.06 53.69C134.13 53.92 134.13 54.15 134.13 54.45C134.13 54.6 134.13 54.82 134.13 54.98C134.13 55.13 134.06 55.35 134.06 55.5L133.68 59.43ZM142.06 56.79C142.06 57.32 141.98 57.69 141.76 58.07C141.61 58.45 141.3 58.75 141 58.98C140.7 59.2 140.32 59.43 139.95 59.58C139.49 59.73 139.11 59.81 138.59 59.81C138.13 59.81 137.68 59.73 137.38 59.58C137.08 59.43 136.77 59.28 136.62 59.05C136.4 58.83 136.32 58.52 136.25 58.22C136.17 57.92 136.17 57.54 136.25 57.09L137.15 52.56C137.15 52.48 137.15 52.48 137.23 52.48C137.23 52.48 137.3 52.41 137.38 52.41C137.45 52.41 137.53 52.33 137.6 52.33C137.68 52.33 137.83 52.33 137.91 52.33C138.06 52.33 138.13 52.33 138.21 52.33C138.28 52.33 138.36 52.33 138.36 52.41C138.44 52.41 138.44 52.48 138.44 52.48L138.44 52.56L137.98 54.98C138.21 54.9 138.44 54.9 138.66 54.82C138.96 54.82 139.19 54.75 139.42 54.75C139.79 54.75 140.17 54.82 140.47 54.9C140.78 54.98 141.08 55.13 141.3 55.28C141.53 55.43 141.68 55.66 141.83 55.88C141.98 56.18 142.06 56.49 142.06 56.79ZM140.78 56.94C140.78 56.79 140.78 56.64 140.7 56.49C140.62 56.34 140.55 56.26 140.4 56.11C140.25 56.03 140.1 55.96 139.95 55.88C139.79 55.81 139.57 55.81 139.34 55.81C139.11 55.81 138.81 55.81 138.59 55.88C138.36 55.88 138.06 55.96 137.91 56.03L137.68 57.17C137.6 57.69 137.6 58.15 137.83 58.45C138.06 58.75 138.36 58.83 138.89 58.83C139.19 58.83 139.42 58.75 139.64 58.68C139.87 58.6 140.1 58.45 140.25 58.3C140.4 58.15 140.55 57.92 140.62 57.69C140.7 57.47 140.78 57.17 140.78 56.94ZM155.5 59.36C155.5 59.51 155.42 59.58 155.35 59.58C155.27 59.58 155.12 59.66 154.9 59.66C154.82 59.66 154.44 59.66 154.44 59.66C154.37 59.66 154.37 59.58 154.37 59.58C154.37 59.58 154.37 59.51 154.37 59.43L154.67 55.43C154.67 55.35 154.67 55.2 154.74 55.05C154.74 54.9 154.82 54.67 154.82 54.52C154.82 54.3 154.9 54.15 154.9 53.92C154.9 53.69 154.97 53.54 154.97 53.39C154.9 53.54 154.82 53.69 154.74 53.84C154.67 53.99 154.59 54.15 154.52 54.3C154.44 54.45 154.37 54.67 154.29 54.82C154.22 54.98 154.14 55.13 154.06 55.28L151.8 59.36C151.8 59.43 151.72 59.43 151.72 59.51C151.72 59.58 151.65 59.58 151.57 59.58C151.5 59.58 151.42 59.58 151.35 59.66C151.27 59.66 151.2 59.66 151.04 59.66C150.97 59.66 150.82 59.66 150.82 59.66C150.74 59.66 150.67 59.66 150.67 59.58C150.59 59.58 150.59 59.51 150.59 59.51C150.59 59.51 150.52 59.43 150.52 59.36L149.91 55.28C149.91 55.13 149.84 54.9 149.84 54.75C149.84 54.6 149.76 54.37 149.76 54.22C149.76 54.07 149.76 53.92 149.69 53.77C149.69 53.62 149.69 53.47 149.69 53.31C149.61 53.47 149.61 53.62 149.53 53.84C149.46 53.99 149.46 54.22 149.38 54.37C149.31 54.52 149.31 54.75 149.23 54.9C149.16 55.05 149.16 55.28 149.08 55.43L147.8 59.36C147.8 59.43 147.72 59.51 147.72 59.51C147.72 59.51 147.65 59.58 147.57 59.58C147.5 59.58 147.42 59.58 147.34 59.58C147.27 59.58 147.12 59.58 147.04 59.58C146.89 59.58 146.82 59.58 146.74 59.58C146.67 59.58 146.59 59.58 146.59 59.51C146.59 59.43 146.51 59.43 146.51 59.43C146.51 59.43 146.51 59.36 146.51 59.28L148.55 52.79C148.63 52.64 148.7 52.48 148.78 52.41C148.86 52.33 149.01 52.26 149.23 52.26C149.38 52.26 150.06 52.26 150.14 52.26C150.21 52.26 150.29 52.33 150.37 52.41C150.44 52.48 150.44 52.56 150.52 52.64C150.52 52.71 150.59 52.86 150.59 53.01L151.04 55.96C151.04 56.11 151.12 56.34 151.12 56.49C151.12 56.64 151.12 56.86 151.2 57.01C151.2 57.17 151.2 57.39 151.27 57.54C151.27 57.69 151.27 57.85 151.27 58C151.35 57.85 151.42 57.69 151.5 57.47C151.57 57.32 151.65 57.09 151.8 56.94C151.88 56.79 151.95 56.56 152.1 56.41C152.18 56.26 152.25 56.03 152.4 55.88L153.99 52.94C154.06 52.79 154.14 52.71 154.22 52.64C154.29 52.56 154.37 52.48 154.44 52.41C154.52 52.33 154.67 52.33 154.74 52.26C154.82 52.26 155.65 52.26 155.8 52.26C155.95 52.26 156.1 52.26 156.18 52.33C156.25 52.41 156.25 52.56 156.25 52.71L155.5 59.36ZM163.13 59.43C163.13 59.51 163.05 59.58 162.97 59.58C162.9 59.58 162.75 59.66 162.52 59.66C162.45 59.66 162.37 59.66 162.3 59.66C162.22 59.66 162.14 59.66 162.14 59.66L162.07 59.58L162.07 59.51L162.3 58.22C162.22 58.37 162.14 58.6 161.92 58.75C161.77 58.98 161.54 59.13 161.31 59.28C161.09 59.43 160.78 59.58 160.48 59.66C160.18 59.73 159.88 59.81 159.58 59.81C159.2 59.81 158.82 59.73 158.6 59.58C158.29 59.43 158.14 59.28 157.99 58.98C157.84 58.75 157.69 58.45 157.69 58.15C157.61 57.85 157.61 57.54 157.61 57.24C157.61 56.94 157.61 56.64 157.69 56.26C157.76 55.88 157.84 55.5 157.92 55.13C157.99 54.75 158.22 54.37 158.37 53.99C158.6 53.62 158.82 53.31 159.05 53.01C159.35 52.71 159.65 52.48 159.95 52.33C160.33 52.18 160.71 52.11 161.16 52.11C161.62 52.11 161.99 52.18 162.37 52.41C162.67 52.56 162.97 52.86 163.28 53.16L163.43 52.48C163.43 52.41 163.5 52.33 163.58 52.33C163.65 52.26 163.81 52.26 164.03 52.26C164.11 52.26 164.26 52.26 164.26 52.26C164.33 52.26 164.41 52.26 164.41 52.33L164.48 52.41L164.48 52.48L163.13 59.43ZM162.82 54.37C162.6 53.99 162.37 53.77 162.07 53.54C161.77 53.39 161.46 53.31 161.16 53.31C160.86 53.31 160.63 53.39 160.41 53.54C160.18 53.69 159.95 53.84 159.8 54.07C159.65 54.3 159.5 54.52 159.35 54.82C159.2 55.13 159.12 55.35 159.05 55.66C158.97 55.96 158.9 56.26 158.9 56.49C158.82 56.79 158.82 57.01 158.82 57.24C158.82 57.39 158.82 57.62 158.82 57.77C158.82 57.92 158.9 58.07 158.97 58.22C159.05 58.37 159.12 58.52 159.27 58.6C159.43 58.68 159.58 58.75 159.8 58.75C160.11 58.75 160.33 58.68 160.63 58.52C160.94 58.37 161.16 58.15 161.39 57.85C161.62 57.54 161.84 57.24 162.07 56.86C162.22 56.49 162.37 56.11 162.52 55.66L162.82 54.37ZM171.05 53.99C171.05 54.3 170.98 54.52 170.9 54.75C170.83 54.98 170.68 55.2 170.45 55.35C170.22 55.58 170 55.73 169.69 55.88C169.39 56.03 169.02 56.18 168.56 56.34C168.18 56.41 167.81 56.56 167.58 56.71C167.28 56.86 167.13 56.94 166.98 57.09C166.83 57.24 166.75 57.32 166.67 57.47C166.6 57.62 166.6 57.69 166.6 57.92C166.6 58.22 166.67 58.45 166.9 58.6C167.13 58.75 167.43 58.83 167.88 58.83C168.18 58.83 168.49 58.83 168.71 58.75C168.94 58.68 169.17 58.6 169.39 58.52C169.54 58.45 169.77 58.37 169.85 58.3C170 58.22 170.07 58.22 170.15 58.22C170.22 58.22 170.22 58.22 170.22 58.3C170.22 58.37 170.3 58.37 170.3 58.45C170.3 58.52 170.3 58.52 170.3 58.68C170.3 58.75 170.3 58.83 170.22 58.9C170.22 58.98 170.15 59.05 170.15 59.2C170.15 59.28 170.07 59.36 170 59.43C169.92 59.51 169.85 59.51 169.69 59.58C169.54 59.66 169.39 59.73 169.17 59.81C168.94 59.88 168.71 59.88 168.49 59.96C168.26 59.96 167.96 60.03 167.73 60.03C167.28 60.03 166.98 60.03 166.67 59.88C166.37 59.81 166.15 59.66 165.92 59.51C165.69 59.36 165.54 59.2 165.47 58.98C165.39 58.75 165.32 58.52 165.32 58.3C165.32 58 165.39 57.69 165.47 57.47C165.54 57.24 165.77 57.01 165.99 56.79C166.22 56.56 166.52 56.41 166.83 56.26C167.13 56.11 167.58 55.96 168.03 55.81C168.41 55.73 168.71 55.58 168.94 55.5C169.17 55.43 169.39 55.28 169.54 55.2C169.69 55.13 169.77 54.98 169.85 54.82C169.92 54.67 169.92 54.6 169.92 54.45C169.92 54.15 169.85 53.92 169.62 53.77C169.39 53.62 169.09 53.54 168.71 53.54C168.41 53.54 168.18 53.54 167.96 53.62C167.73 53.69 167.58 53.77 167.35 53.77C167.2 53.84 167.05 53.92 166.98 53.99C166.9 54.07 166.83 54.07 166.75 54.07C166.67 54.07 166.67 54.07 166.67 53.99C166.67 53.99 166.67 53.92 166.67 53.84C166.67 53.77 166.67 53.77 166.67 53.69C166.67 53.62 166.67 53.54 166.75 53.47C166.75 53.39 166.83 53.31 166.83 53.24C166.83 53.16 166.9 53.09 166.98 53.01C167.05 52.94 167.2 52.86 167.28 52.79C167.43 52.71 167.58 52.64 167.73 52.64C167.88 52.56 168.11 52.56 168.34 52.48C168.56 52.48 168.71 52.41 168.94 52.41C169.32 52.41 169.69 52.48 170 52.56C170.3 52.64 170.53 52.79 170.75 52.94C170.98 53.09 171.13 53.31 171.2 53.54C170.98 53.54 171.05 53.77 171.05 53.99ZM177.62 59.43C177.62 59.51 177.55 59.58 177.47 59.58C177.4 59.58 177.25 59.66 177.02 59.66C176.94 59.66 176.87 59.66 176.79 59.66C176.72 59.66 176.64 59.66 176.64 59.66C176.57 59.66 176.57 59.58 176.57 59.58L176.57 59.51L176.79 58.22C176.72 58.37 176.57 58.6 176.41 58.75C176.26 58.98 176.04 59.13 175.81 59.28C175.58 59.43 175.28 59.58 174.98 59.66C174.68 59.73 174.38 59.81 174.07 59.81C173.62 59.81 173.32 59.73 173.09 59.58C172.79 59.43 172.64 59.28 172.41 58.98C172.26 58.75 172.11 58.45 172.11 58.15C172.04 57.85 172.04 57.54 172.04 57.24C172.04 56.94 172.04 56.64 172.11 56.26C172.19 55.88 172.26 55.5 172.34 55.13C172.49 54.75 172.64 54.37 172.79 53.99C173.02 53.62 173.24 53.31 173.47 53.01C173.77 52.71 174.07 52.48 174.38 52.33C174.75 52.18 175.13 52.11 175.58 52.11C176.04 52.11 176.41 52.18 176.72 52.41C177.02 52.56 177.32 52.86 177.55 53.16L177.7 52.48C177.7 52.41 177.77 52.33 177.85 52.33C177.92 52.26 178.08 52.26 178.3 52.26C178.38 52.26 178.45 52.26 178.53 52.26C178.6 52.26 178.68 52.26 178.68 52.33C178.76 52.33 178.76 52.41 178.76 52.41L178.76 52.48L177.62 59.43ZM177.4 54.37C177.17 53.99 176.87 53.77 176.64 53.54C176.34 53.39 176.04 53.31 175.74 53.31C175.43 53.31 175.21 53.39 174.98 53.54C174.75 53.69 174.53 53.84 174.38 54.07C174.22 54.3 174.07 54.52 173.92 54.82C173.77 55.13 173.7 55.35 173.62 55.66C173.55 55.96 173.47 56.26 173.47 56.49C173.47 56.79 173.39 57.01 173.39 57.24C173.39 57.39 173.39 57.62 173.47 57.77C173.47 57.92 173.55 58.07 173.62 58.22C173.7 58.37 173.77 58.52 173.92 58.6C174.07 58.68 174.22 58.75 174.45 58.75C174.75 58.75 174.98 58.68 175.28 58.52C175.58 58.37 175.81 58.15 176.04 57.85C176.26 57.54 176.49 57.24 176.72 56.86C176.94 56.49 177.02 56.11 177.17 55.66L177.4 54.37ZM185.55 53.84C185.55 54.07 185.48 54.22 185.4 54.45C185.32 54.67 185.17 54.82 185.02 54.98C184.87 55.13 184.72 55.28 184.49 55.43C184.27 55.58 184.04 55.66 183.81 55.73C183.97 55.73 184.12 55.81 184.27 55.88C184.42 55.96 184.57 56.03 184.64 56.18C184.8 56.34 184.87 56.41 184.95 56.56C185.02 56.71 185.02 56.94 185.02 57.09C185.02 57.47 184.95 57.77 184.8 58.07C184.64 58.37 184.42 58.68 184.12 58.9C183.81 59.13 183.44 59.36 183.06 59.43C182.61 59.58 182.15 59.66 181.62 59.66C181.4 59.66 181.17 59.66 180.94 59.58C180.72 59.58 180.49 59.51 180.34 59.43C180.19 59.36 179.96 59.28 179.89 59.2C179.74 59.13 179.66 59.05 179.59 58.98C179.51 58.9 179.51 58.83 179.51 58.75C179.51 58.68 179.51 58.6 179.51 58.52C179.51 58.45 179.59 58.37 179.59 58.3C179.59 58.22 179.66 58.15 179.66 58.07C179.74 58 179.74 58 179.81 58C179.89 58 179.96 58 180.04 58.07C180.11 58.15 180.27 58.22 180.42 58.3C180.57 58.37 180.72 58.45 180.94 58.52C181.17 58.6 181.4 58.6 181.7 58.6C182.08 58.6 182.3 58.6 182.61 58.52C182.83 58.45 183.06 58.37 183.29 58.22C183.44 58.07 183.59 57.92 183.66 57.77C183.74 57.54 183.81 57.39 183.81 57.17C183.81 57.09 183.81 56.94 183.74 56.86C183.66 56.79 183.59 56.64 183.44 56.56C183.29 56.49 183.13 56.41 182.91 56.34C182.68 56.26 182.38 56.26 182.08 56.26L181.25 56.26C181.17 56.26 181.1 56.26 181.1 56.18C181.1 56.18 181.02 56.11 181.02 56.03C181.02 56.03 181.02 55.96 181.02 55.88C181.02 55.81 181.02 55.73 181.1 55.66C181.1 55.58 181.17 55.5 181.17 55.43C181.25 55.35 181.32 55.35 181.4 55.35L182.08 55.35C182.46 55.35 182.76 55.35 182.98 55.28C183.29 55.2 183.44 55.13 183.66 55.05C183.89 54.98 183.97 54.82 184.12 54.6C184.19 54.45 184.27 54.22 184.27 54.07C184.27 53.77 184.19 53.54 183.97 53.47C183.74 53.31 183.44 53.24 183.06 53.24C182.76 53.24 182.53 53.24 182.23 53.31C182 53.39 181.78 53.47 181.55 53.54C181.32 53.62 181.17 53.69 181.1 53.77C180.94 53.84 180.87 53.84 180.87 53.84C180.79 53.84 180.72 53.77 180.72 53.62C180.72 53.54 180.72 53.47 180.72 53.39C180.72 53.31 180.72 53.24 180.79 53.16C180.79 53.09 180.87 53.01 180.87 52.94C180.87 52.86 180.94 52.79 180.94 52.79C181.02 52.71 181.1 52.64 181.25 52.56C181.4 52.48 181.55 52.41 181.78 52.33C182 52.26 182.23 52.18 182.46 52.18C182.68 52.11 182.98 52.11 183.21 52.11C183.59 52.11 183.89 52.11 184.19 52.18C184.49 52.26 184.72 52.33 184.95 52.48C185.17 52.64 185.25 52.79 185.4 53.01C185.48 53.39 185.55 53.62 185.55 53.84ZM192.27 59.43C192.27 59.51 192.27 59.51 192.2 59.51L192.12 59.58C192.04 59.58 192.04 59.58 191.97 59.58C191.89 59.58 191.82 59.58 191.74 59.58C191.67 59.58 191.52 59.58 191.52 59.58C191.44 59.58 191.36 59.58 191.36 59.58L191.29 59.51C191.29 59.43 191.29 59.43 191.29 59.43L191.52 58.15C191.44 58.3 191.29 58.52 191.14 58.68C190.99 58.83 190.76 59.05 190.53 59.2C190.31 59.36 190.01 59.51 189.78 59.58C189.48 59.66 189.25 59.73 188.95 59.73C188.57 59.73 188.27 59.66 188.04 59.58C187.82 59.51 187.59 59.36 187.44 59.2C187.29 59.05 187.21 58.83 187.14 58.6C187.06 58.37 187.06 58.15 187.06 57.85C187.06 57.69 187.06 57.47 187.06 57.32C187.06 57.17 187.14 56.94 187.14 56.79L187.97 52.48C187.97 52.41 187.97 52.41 188.04 52.41C188.04 52.41 188.12 52.33 188.19 52.33C188.27 52.33 188.34 52.26 188.42 52.26C188.5 52.26 188.57 52.26 188.72 52.26C188.87 52.26 188.95 52.26 189.02 52.26C189.1 52.26 189.18 52.26 189.18 52.33C189.25 52.33 189.25 52.41 189.25 52.41L189.25 52.48L188.42 56.79C188.42 56.94 188.34 57.09 188.34 57.17C188.34 57.32 188.34 57.47 188.34 57.62C188.34 57.77 188.34 57.92 188.42 58C188.42 58.15 188.5 58.22 188.57 58.3C188.65 58.37 188.72 58.45 188.87 58.52C188.95 58.6 189.1 58.6 189.25 58.6C189.55 58.6 189.78 58.52 190.08 58.37C190.38 58.22 190.61 58 190.84 57.69C191.06 57.39 191.29 57.09 191.52 56.71C191.74 56.34 191.82 55.88 191.97 55.43L192.57 52.41C192.57 52.33 192.57 52.33 192.65 52.33C192.65 52.33 192.72 52.26 192.8 52.26C192.87 52.26 192.95 52.18 193.03 52.18C193.1 52.18 193.25 52.18 193.33 52.18C193.48 52.18 193.55 52.18 193.63 52.18C193.71 52.18 193.78 52.18 193.86 52.26L193.93 52.33L193.93 52.41L192.27 59.43ZM200.5 59.43C200.5 59.51 200.5 59.51 200.43 59.51C200.43 59.51 200.35 59.58 200.27 59.58C200.2 59.58 200.12 59.58 200.05 59.66C199.97 59.66 199.9 59.66 199.75 59.66C199.59 59.66 199.52 59.66 199.44 59.66C199.37 59.66 199.29 59.66 199.29 59.58C199.22 59.58 199.22 59.51 199.22 59.51L199.22 59.43L199.82 56.41L196.42 56.41L195.82 59.43C195.82 59.51 195.82 59.51 195.74 59.51L195.67 59.58C195.59 59.58 195.52 59.58 195.44 59.66C195.37 59.66 195.22 59.66 195.14 59.66C194.99 59.66 194.91 59.66 194.84 59.66C194.76 59.66 194.69 59.66 194.69 59.58C194.61 59.58 194.61 59.51 194.61 59.51L194.61 59.43L195.97 52.56C195.97 52.48 195.97 52.48 196.05 52.48C196.05 52.48 196.12 52.41 196.2 52.41C196.27 52.41 196.35 52.33 196.42 52.33C196.5 52.33 196.57 52.33 196.73 52.33C196.88 52.33 196.95 52.33 197.03 52.33C197.1 52.33 197.18 52.33 197.18 52.41L197.25 52.48L197.25 52.56L196.73 55.35L200.12 55.35L200.65 52.56C200.65 52.48 200.65 52.48 200.73 52.48C200.73 52.48 200.8 52.41 200.88 52.41C200.95 52.41 201.03 52.33 201.1 52.33C201.18 52.33 201.33 52.33 201.41 52.33C201.56 52.33 201.63 52.33 201.71 52.33C201.78 52.33 201.86 52.33 201.86 52.41C201.94 52.41 201.94 52.48 201.94 52.48L201.94 52.56L200.5 59.43ZM209.86 54.82C209.86 55.2 209.79 55.58 209.79 55.96C209.71 56.34 209.64 56.71 209.49 57.09C209.34 57.47 209.18 57.77 208.96 58.15C208.73 58.45 208.5 58.75 208.2 58.98C207.9 59.2 207.52 59.43 207.15 59.58C206.77 59.73 206.31 59.81 205.86 59.81C205.41 59.81 204.96 59.73 204.58 59.66C204.2 59.51 203.9 59.36 203.75 59.13C203.52 58.9 203.37 58.6 203.22 58.3C203.14 58 203.07 57.62 203.07 57.17C203.07 56.79 203.07 56.41 203.14 56.03C203.22 55.66 203.29 55.28 203.45 54.9C203.6 54.52 203.75 54.22 203.97 53.84C204.2 53.54 204.43 53.24 204.73 53.01C205.03 52.79 205.41 52.56 205.79 52.48C206.16 52.33 206.62 52.26 207.07 52.26C207.52 52.26 207.98 52.33 208.35 52.41C208.73 52.56 208.96 52.71 209.18 52.94C209.41 53.16 209.56 53.47 209.71 53.77C209.79 54.07 209.86 54.45 209.86 54.82ZM208.5 54.9C208.5 54.67 208.5 54.45 208.43 54.22C208.35 53.99 208.28 53.84 208.13 53.69C207.98 53.54 207.83 53.47 207.67 53.39C207.45 53.31 207.22 53.31 206.92 53.31C206.62 53.31 206.31 53.39 206.09 53.47C205.86 53.54 205.64 53.69 205.41 53.92C205.18 54.15 205.03 54.3 204.88 54.6C204.73 54.82 204.58 55.13 204.5 55.43C204.43 55.73 204.35 56.03 204.28 56.34C204.2 56.64 204.2 56.94 204.2 57.24C204.2 57.47 204.2 57.69 204.28 57.92C204.35 58.15 204.43 58.3 204.58 58.45C204.73 58.6 204.88 58.68 205.03 58.75C205.26 58.83 205.48 58.83 205.79 58.83C206.09 58.83 206.39 58.75 206.62 58.68C206.84 58.52 207.07 58.45 207.3 58.22C207.52 58.07 207.67 57.85 207.83 57.54C207.98 57.32 208.13 57.01 208.2 56.71C208.28 56.41 208.35 56.11 208.43 55.81C208.5 55.5 208.5 55.2 208.5 54.9ZM216.96 57.17C216.96 57.39 216.96 57.62 216.89 57.85C216.81 58.07 216.73 58.22 216.66 58.45C216.51 58.68 216.36 58.83 216.21 58.98C215.98 59.13 215.83 59.28 215.53 59.43C215.3 59.58 215 59.66 214.7 59.73C214.39 59.81 214.02 59.81 213.64 59.81C213.11 59.81 212.73 59.73 212.36 59.66C212.05 59.51 211.75 59.36 211.52 59.13C211.3 58.9 211.15 58.68 211.07 58.37C211 58.07 210.92 57.77 210.92 57.47C210.92 57.24 210.92 56.94 211 56.64C211 56.26 211.07 55.96 211.22 55.5C211.3 55.13 211.45 54.75 211.68 54.37C211.9 53.99 212.13 53.62 212.43 53.31C212.73 53.01 213.11 52.71 213.49 52.56C213.94 52.33 214.39 52.26 215 52.26C215.38 52.26 215.75 52.33 216.06 52.41C216.36 52.48 216.58 52.64 216.81 52.79C217.04 52.94 217.11 53.09 217.26 53.31C217.34 53.54 217.41 53.77 217.41 53.92C217.41 54.15 217.34 54.37 217.26 54.6C217.19 54.82 217.11 54.98 216.96 55.13C216.81 55.28 216.66 55.43 216.43 55.5C216.21 55.66 216.06 55.73 215.83 55.73C216.06 55.81 216.28 55.88 216.43 55.96C216.58 56.03 216.73 56.18 216.81 56.34C216.89 56.49 216.96 56.56 217.04 56.71C216.96 56.86 216.96 57.01 216.96 57.17ZM215.68 57.24C215.68 57.09 215.68 57.01 215.6 56.86C215.53 56.71 215.45 56.64 215.3 56.56C215.15 56.49 215 56.41 214.77 56.34C214.55 56.26 214.32 56.26 213.94 56.26L212.28 56.26C212.28 56.49 212.2 56.64 212.2 56.86C212.2 57.01 212.2 57.24 212.2 57.39C212.2 57.92 212.36 58.3 212.58 58.52C212.81 58.75 213.19 58.9 213.71 58.9C214.09 58.9 214.39 58.83 214.62 58.75C214.85 58.68 215.07 58.52 215.22 58.37C215.38 58.22 215.53 58.07 215.6 57.85C215.68 57.62 215.68 57.39 215.68 57.24ZM216.13 53.99C216.13 53.84 216.13 53.77 216.06 53.69C215.98 53.62 215.9 53.47 215.83 53.39C215.75 53.31 215.6 53.24 215.45 53.24C215.3 53.24 215.15 53.16 214.92 53.16C214.7 53.16 214.39 53.16 214.17 53.31C213.94 53.39 213.71 53.54 213.49 53.69C213.26 53.84 213.11 54.07 212.96 54.37C212.81 54.67 212.66 54.98 212.58 55.35L214.24 55.35C214.55 55.35 214.85 55.35 215.07 55.28C215.3 55.2 215.53 55.13 215.68 54.98C215.83 54.82 215.98 54.75 216.06 54.52C216.06 54.37 216.13 54.22 216.13 53.99ZM227.68 59.43C227.68 59.51 227.61 59.58 227.53 59.58C227.46 59.58 227.31 59.66 227.08 59.66C227 59.66 226.85 59.66 226.85 59.66C226.78 59.66 226.7 59.66 226.7 59.66C226.63 59.66 226.63 59.58 226.63 59.58L226.63 59.51L226.85 58.22C226.78 58.37 226.7 58.6 226.47 58.75C226.32 58.98 226.1 59.13 225.87 59.28C225.64 59.43 225.34 59.58 225.12 59.66C224.81 59.73 224.51 59.81 224.21 59.81C223.83 59.81 223.45 59.73 223.23 59.58C223 59.43 222.78 59.28 222.62 58.98C222.47 58.75 222.32 58.45 222.32 58.15C222.25 57.85 222.25 57.54 222.25 57.24C222.25 56.94 222.25 56.64 222.32 56.26C222.4 55.88 222.47 55.5 222.55 55.13C222.7 54.75 222.85 54.37 223 53.99C223.23 53.62 223.45 53.31 223.68 53.01C223.98 52.71 224.29 52.48 224.59 52.33C224.96 52.18 225.34 52.11 225.8 52.11C226.25 52.11 226.63 52.18 226.93 52.41C227.23 52.56 227.53 52.86 227.83 53.16L227.99 52.48C227.99 52.41 228.06 52.33 228.14 52.33C228.21 52.26 228.36 52.26 228.59 52.26C228.66 52.26 228.82 52.26 228.82 52.26C228.89 52.26 228.97 52.26 228.97 52.33C229.04 52.33 229.04 52.41 229.04 52.41L229.04 52.48L227.68 59.43ZM227.38 54.37C227.15 53.99 226.85 53.77 226.63 53.54C226.32 53.39 226.02 53.31 225.72 53.31C225.42 53.31 225.19 53.39 224.96 53.54C224.74 53.69 224.51 53.84 224.36 54.07C224.21 54.3 224.06 54.52 223.91 54.82C223.76 55.13 223.68 55.35 223.61 55.66C223.53 55.96 223.45 56.26 223.45 56.49C223.45 56.79 223.38 57.01 223.38 57.24C223.38 57.39 223.38 57.62 223.45 57.77C223.45 57.92 223.53 58.07 223.61 58.22C223.68 58.37 223.83 58.52 223.91 58.6C224.06 58.68 224.21 58.75 224.44 58.75C224.74 58.75 224.96 58.68 225.27 58.52C225.57 58.37 225.8 58.15 226.02 57.85C226.25 57.54 226.47 57.24 226.7 56.86C226.93 56.49 227 56.11 227.08 55.66L227.38 54.37ZM236.06 57.17C236.06 57.39 236.06 57.62 235.99 57.85C235.91 58.07 235.84 58.22 235.76 58.45C235.61 58.68 235.46 58.83 235.31 58.98C235.08 59.13 234.93 59.28 234.63 59.43C234.4 59.58 234.1 59.66 233.8 59.73C233.5 59.81 233.12 59.81 232.74 59.81C232.21 59.81 231.84 59.73 231.46 59.66C231.16 59.51 230.85 59.36 230.63 59.13C230.4 58.9 230.25 58.68 230.17 58.37C230.1 58.07 230.02 57.77 230.02 57.47C230.02 57.24 230.02 56.94 230.1 56.64C230.17 56.26 230.25 55.96 230.33 55.5C230.4 55.13 230.55 54.75 230.78 54.37C231.01 53.99 231.23 53.62 231.53 53.31C231.84 53.01 232.21 52.71 232.59 52.56C233.04 52.33 233.5 52.26 234.1 52.26C234.48 52.26 234.86 52.33 235.16 52.41C235.46 52.48 235.69 52.64 235.91 52.79C236.14 52.94 236.22 53.09 236.37 53.31C236.44 53.54 236.52 53.77 236.52 53.92C236.52 54.15 236.52 54.37 236.44 54.6C236.37 54.82 236.22 54.98 236.14 55.13C235.99 55.28 235.84 55.43 235.61 55.5C235.38 55.66 235.23 55.73 235.01 55.73C235.23 55.81 235.46 55.88 235.61 55.96C235.76 56.03 235.91 56.18 235.99 56.34C236.06 56.49 236.14 56.56 236.14 56.71C236.06 56.86 236.06 57.01 236.06 57.17ZM234.78 57.24C234.78 57.09 234.78 57.01 234.71 56.86C234.63 56.71 234.55 56.64 234.48 56.56C234.33 56.49 234.18 56.41 233.95 56.34C233.72 56.26 233.5 56.26 233.12 56.26L231.46 56.26C231.46 56.49 231.38 56.64 231.38 56.86C231.38 57.01 231.38 57.24 231.38 57.39C231.38 57.92 231.46 58.3 231.76 58.52C231.99 58.75 232.36 58.9 232.89 58.9C233.27 58.9 233.57 58.83 233.8 58.75C234.03 58.68 234.25 58.52 234.4 58.37C234.55 58.22 234.71 58.07 234.78 57.85C234.78 57.62 234.78 57.39 234.78 57.24ZM235.16 53.99C235.16 53.84 235.16 53.77 235.08 53.69C235.01 53.62 234.93 53.47 234.86 53.39C234.78 53.31 234.63 53.24 234.48 53.24C234.33 53.24 234.18 53.16 233.95 53.16C233.72 53.16 233.42 53.16 233.19 53.31C232.97 53.39 232.74 53.54 232.52 53.69C232.29 53.84 232.14 54.07 231.99 54.37C231.84 54.67 231.68 54.98 231.61 55.35L233.27 55.35C233.57 55.35 233.87 55.35 234.1 55.28C234.33 55.2 234.55 55.13 234.71 54.98C234.86 54.82 235.01 54.75 235.01 54.52C235.16 54.37 235.16 54.22 235.16 53.99ZM247.54 59.43C247.54 59.51 247.54 59.51 247.47 59.51C247.47 59.51 247.39 59.58 247.31 59.58C247.24 59.58 247.16 59.58 247.09 59.66C247.01 59.66 246.86 59.66 246.79 59.66C246.63 59.66 246.56 59.66 246.48 59.66C246.41 59.66 246.33 59.66 246.33 59.58C246.26 59.58 246.26 59.51 246.26 59.51L246.26 59.43L247.09 55.2C247.16 55.05 247.16 54.9 247.16 54.82C247.16 54.67 247.16 54.52 247.16 54.45C247.16 54.15 247.09 53.84 246.94 53.69C246.79 53.47 246.56 53.39 246.26 53.39C246.03 53.39 245.73 53.47 245.43 53.62C245.12 53.77 244.9 53.99 244.67 54.3C244.45 54.6 244.22 54.9 243.99 55.28C243.84 55.66 243.69 56.03 243.61 56.49L243.01 59.58C243.01 59.66 243.01 59.66 242.94 59.66C242.94 59.66 242.86 59.73 242.78 59.73C242.71 59.73 242.63 59.73 242.56 59.81C242.48 59.81 242.33 59.81 242.26 59.81C242.1 59.81 242.03 59.81 241.95 59.81C241.88 59.81 241.8 59.81 241.8 59.73C241.73 59.73 241.73 59.66 241.73 59.66L241.73 59.58L242.56 55.35C242.56 55.2 242.63 55.05 242.63 54.9C242.63 54.75 242.63 54.6 242.63 54.45C242.63 54.15 242.56 53.92 242.41 53.69C242.26 53.54 242.1 53.39 241.73 53.39C241.5 53.39 241.2 53.47 240.9 53.62C240.59 53.77 240.37 53.99 240.14 54.3C239.91 54.6 239.69 54.9 239.46 55.28C239.24 55.66 239.16 56.03 239.08 56.49L238.48 59.58C238.48 59.66 238.48 59.66 238.4 59.66C238.4 59.66 238.33 59.73 238.25 59.73C238.18 59.73 238.1 59.73 238.03 59.81C237.95 59.81 237.8 59.81 237.73 59.81C237.57 59.81 237.5 59.81 237.42 59.81C237.35 59.81 237.27 59.81 237.27 59.73L237.2 59.66L237.2 59.58L238.56 52.71C238.56 52.64 238.56 52.64 238.63 52.64L238.71 52.56C238.78 52.56 238.78 52.48 238.86 52.48C238.93 52.48 239.01 52.48 239.16 52.48C239.24 52.48 239.39 52.48 239.46 52.48C239.54 52.48 239.54 52.48 239.61 52.56L239.69 52.64L239.69 52.71L239.46 53.99C239.54 53.84 239.69 53.62 239.84 53.47C239.99 53.24 240.22 53.09 240.44 52.94C240.67 52.79 240.97 52.64 241.2 52.56C241.5 52.48 241.73 52.41 242.03 52.41C242.33 52.41 242.56 52.48 242.78 52.56C243.01 52.64 243.16 52.79 243.31 52.94C243.46 53.09 243.54 53.24 243.61 53.47C243.69 53.69 243.69 53.92 243.77 54.15C243.84 53.99 243.99 53.77 244.14 53.62C244.29 53.39 244.52 53.24 244.75 53.09C244.97 52.94 245.28 52.79 245.5 52.71C245.8 52.64 246.03 52.56 246.33 52.56C246.71 52.56 246.94 52.64 247.16 52.71C247.39 52.79 247.54 52.94 247.69 53.09C247.84 53.24 247.92 53.47 247.99 53.69C248.07 53.92 248.07 54.15 248.07 54.45C248.07 54.6 248.07 54.82 248.07 54.98C248.07 55.13 247.99 55.35 247.99 55.5L247.54 59.43ZM256.9 54.82C256.9 55.2 256.83 55.58 256.83 55.96C256.75 56.34 256.68 56.71 256.53 57.09C256.38 57.47 256.22 57.77 256 58.15C255.77 58.45 255.54 58.75 255.17 58.98C254.87 59.2 254.49 59.43 254.11 59.58C253.73 59.73 253.28 59.81 252.83 59.81C252.37 59.81 251.92 59.73 251.54 59.66C251.17 59.51 250.94 59.36 250.64 59.13C250.41 58.9 250.26 58.6 250.18 58.3C250.11 58 250.03 57.62 250.03 57.17C250.03 56.79 250.11 56.41 250.11 56.03C250.18 55.66 250.26 55.28 250.41 54.9C250.56 54.52 250.71 54.22 250.94 53.84C251.17 53.54 251.39 53.24 251.77 53.01C252.07 52.79 252.37 52.56 252.83 52.48C253.2 52.33 253.66 52.26 254.11 52.26C254.56 52.26 255.02 52.33 255.39 52.41C255.77 52.56 256 52.71 256.22 52.94C256.45 53.16 256.6 53.47 256.75 53.77C256.83 54.07 256.9 54.45 256.9 54.82ZM255.54 54.9C255.54 54.67 255.54 54.45 255.47 54.22C255.39 53.99 255.32 53.84 255.17 53.69C255.02 53.54 254.87 53.47 254.71 53.39C254.49 53.31 254.26 53.31 253.96 53.31C253.66 53.31 253.35 53.39 253.13 53.47C252.9 53.54 252.68 53.69 252.45 53.92C252.22 54.15 252.07 54.3 251.92 54.6C251.77 54.82 251.62 55.13 251.54 55.43C251.47 55.73 251.39 56.03 251.32 56.34C251.24 56.64 251.24 56.94 251.24 57.24C251.24 57.47 251.24 57.69 251.32 57.92C251.39 58.15 251.47 58.3 251.62 58.45C251.77 58.6 251.92 58.68 252.07 58.75C252.3 58.83 252.52 58.83 252.83 58.83C253.13 58.83 253.43 58.75 253.66 58.68C253.88 58.52 254.11 58.45 254.34 58.22C254.56 58.07 254.71 57.85 254.87 57.54C255.02 57.32 255.17 57.01 255.24 56.71C255.32 56.41 255.39 56.11 255.47 55.81C255.54 55.5 255.54 55.2 255.54 54.9ZM264.91 54.75C264.91 55.05 264.91 55.35 264.83 55.73C264.76 56.11 264.68 56.49 264.61 56.86C264.45 57.24 264.3 57.62 264.15 58C263.93 58.37 263.7 58.68 263.47 58.9C263.25 59.13 262.87 59.36 262.57 59.58C262.19 59.73 261.81 59.81 261.36 59.81C261.13 59.81 260.91 59.81 260.75 59.73C260.53 59.66 260.38 59.66 260.23 59.51C260.07 59.43 259.92 59.36 259.77 59.2C259.62 59.13 259.55 58.98 259.4 58.83L258.72 62.15C258.72 62.15 258.72 62.22 258.64 62.22L258.56 62.3C258.49 62.3 258.41 62.3 258.34 62.3C258.26 62.3 258.19 62.3 258.04 62.3C257.89 62.3 257.81 62.3 257.73 62.3C257.66 62.3 257.58 62.3 257.51 62.3C257.43 62.3 257.43 62.22 257.43 62.22L257.43 62.15L259.4 52.56C259.4 52.48 259.47 52.41 259.55 52.41C259.62 52.33 259.77 52.33 260 52.33C260.07 52.33 260.23 52.33 260.23 52.33C260.3 52.33 260.38 52.33 260.38 52.41L260.45 52.48C260.45 52.48 260.45 52.56 260.45 52.64L260.23 53.92C260.3 53.77 260.45 53.54 260.6 53.39C260.75 53.16 260.98 53.01 261.21 52.86C261.43 52.71 261.74 52.56 261.96 52.48C262.26 52.41 262.57 52.33 262.87 52.33C263.25 52.33 263.62 52.41 263.85 52.56C264.08 52.71 264.3 52.86 264.45 53.09C264.61 53.31 264.76 53.54 264.83 53.84C264.83 54.07 264.91 54.37 264.91 54.75ZM263.55 54.82C263.55 54.6 263.55 54.37 263.47 54.22C263.47 54.07 263.4 53.84 263.32 53.77C263.25 53.62 263.17 53.54 263.02 53.47C262.87 53.39 262.72 53.39 262.49 53.39C262.19 53.39 261.96 53.47 261.66 53.62C261.36 53.77 261.13 53.99 260.83 54.22C260.6 54.52 260.38 54.82 260.15 55.2C259.92 55.58 259.85 55.96 259.7 56.41L259.47 57.69C259.7 58.07 260 58.3 260.23 58.52C260.53 58.68 260.83 58.83 261.13 58.83C261.43 58.83 261.66 58.75 261.89 58.6C262.11 58.45 262.34 58.3 262.49 58.07C262.64 57.85 262.79 57.62 262.94 57.32C263.1 57.01 263.17 56.79 263.25 56.49C263.32 56.18 263.4 55.88 263.4 55.58C263.55 55.28 263.55 55.05 263.55 54.82ZM272.53 53.99C272.53 54.37 272.46 54.67 272.31 54.9C272.16 55.2 271.85 55.43 271.55 55.66C271.17 55.88 270.8 56.03 270.19 56.11C269.66 56.18 268.98 56.26 268.23 56.26L267.4 56.26C267.32 56.41 267.32 56.56 267.32 56.71C267.32 56.86 267.32 57.01 267.32 57.17C267.32 57.69 267.47 58.07 267.7 58.37C267.93 58.6 268.38 58.75 268.91 58.75C269.21 58.75 269.51 58.75 269.82 58.68C270.04 58.6 270.27 58.6 270.49 58.52C270.72 58.45 270.87 58.45 270.95 58.37C271.1 58.3 271.17 58.3 271.17 58.3C271.25 58.3 271.25 58.3 271.25 58.37C271.25 58.37 271.25 58.45 271.25 58.52C271.25 58.6 271.25 58.6 271.25 58.68C271.25 58.75 271.25 58.83 271.17 58.9C271.17 58.98 271.1 59.05 271.1 59.13C271.02 59.2 271.02 59.28 270.95 59.28C270.87 59.36 270.8 59.36 270.65 59.43C270.49 59.51 270.27 59.58 270.12 59.58C269.89 59.66 269.66 59.66 269.44 59.73C269.21 59.73 268.91 59.81 268.68 59.81C268.23 59.81 267.85 59.73 267.47 59.66C267.17 59.58 266.87 59.43 266.64 59.2C266.42 58.98 266.27 58.75 266.12 58.45C266.04 58.15 265.96 57.77 265.96 57.32C265.96 57.01 265.96 56.64 266.04 56.26C266.12 55.88 266.19 55.5 266.34 55.13C266.49 54.75 266.64 54.37 266.87 54.07C267.1 53.69 267.32 53.39 267.63 53.16C267.93 52.94 268.31 52.71 268.68 52.56C269.06 52.41 269.51 52.33 270.04 52.33C270.49 52.33 270.8 52.41 271.1 52.48C271.4 52.56 271.63 52.71 271.85 52.94C272.08 53.09 272.16 53.31 272.31 53.47C272.53 53.54 272.53 53.77 272.53 53.99ZM271.25 54.07C271.25 53.84 271.17 53.62 270.95 53.47C270.72 53.31 270.49 53.24 270.04 53.24C269.74 53.24 269.44 53.31 269.14 53.39C268.91 53.54 268.68 53.62 268.46 53.84C268.23 53.99 268.08 54.3 267.93 54.52C267.78 54.75 267.7 55.05 267.63 55.35L268.38 55.35C268.91 55.35 269.36 55.35 269.74 55.28C270.12 55.2 270.42 55.13 270.65 54.98C270.87 54.82 271.02 54.75 271.1 54.6C271.17 54.45 271.25 54.22 271.25 54.07ZM282.2 59.36C282.2 59.51 282.12 59.58 282.05 59.58C281.97 59.58 281.82 59.66 281.59 59.66C281.52 59.66 281.14 59.66 281.07 59.66L280.99 59.58C280.99 59.58 280.99 59.51 280.99 59.43L281.29 55.43C281.29 55.35 281.29 55.2 281.29 55.05C281.29 54.9 281.37 54.67 281.37 54.52C281.37 54.3 281.44 54.15 281.44 53.92C281.44 53.69 281.52 53.54 281.52 53.39C281.44 53.54 281.37 53.69 281.29 53.84C281.22 53.99 281.14 54.15 280.99 54.3C280.91 54.45 280.84 54.67 280.69 54.82C280.61 54.98 280.54 55.13 280.46 55.28L278.2 59.36C278.2 59.43 278.12 59.43 278.12 59.51C278.12 59.58 278.05 59.58 277.97 59.58C277.89 59.58 277.82 59.58 277.74 59.66C277.67 59.66 277.59 59.66 277.44 59.66C277.37 59.66 277.21 59.66 277.21 59.66C277.14 59.66 277.06 59.66 277.06 59.58L276.99 59.51C276.99 59.51 276.99 59.43 276.91 59.36L276.31 55.28C276.31 55.13 276.23 54.9 276.23 54.75C276.23 54.6 276.23 54.37 276.16 54.22C276.16 54.07 276.16 53.92 276.08 53.77C276.08 53.62 276.08 53.47 276.08 53.31C276.01 53.47 276.01 53.62 275.93 53.84C275.86 53.99 275.86 54.22 275.78 54.37C275.7 54.52 275.7 54.75 275.63 54.9C275.55 55.05 275.55 55.28 275.48 55.43L274.19 59.36C274.19 59.43 274.12 59.51 274.12 59.51C274.12 59.51 274.04 59.58 273.97 59.58C273.89 59.58 273.82 59.58 273.74 59.58C273.67 59.58 273.59 59.58 273.44 59.58C273.29 59.58 273.21 59.58 273.14 59.58C273.06 59.58 272.99 59.58 272.99 59.51C272.99 59.43 272.91 59.43 272.91 59.43C272.91 59.43 272.91 59.36 272.99 59.28L275.03 52.79C275.1 52.64 275.18 52.48 275.25 52.41C275.33 52.33 275.48 52.26 275.7 52.26C275.86 52.26 276.54 52.26 276.61 52.26C276.69 52.26 276.76 52.33 276.84 52.41C276.91 52.48 276.91 52.56 276.99 52.64C276.99 52.71 277.06 52.86 277.06 53.01L277.52 55.96C277.52 56.11 277.59 56.34 277.59 56.49C277.59 56.64 277.59 56.86 277.67 57.01C277.67 57.17 277.67 57.39 277.67 57.54C277.67 57.69 277.67 57.85 277.67 58C277.74 57.85 277.82 57.69 277.89 57.47C277.97 57.32 278.05 57.09 278.2 56.94C278.27 56.79 278.35 56.56 278.5 56.41C278.57 56.26 278.72 56.03 278.8 55.88L280.39 52.94C280.46 52.79 280.54 52.71 280.61 52.64C280.69 52.56 280.76 52.48 280.84 52.41C280.91 52.33 280.99 52.33 281.14 52.26C281.22 52.26 281.37 52.26 281.52 52.26L282.2 52.26C282.35 52.26 282.5 52.26 282.58 52.33C282.65 52.41 282.65 52.56 282.65 52.71L282.2 59.36ZM291.03 54.82C291.03 55.2 291.03 55.58 290.96 55.96C290.88 56.34 290.81 56.71 290.65 57.09C290.5 57.47 290.35 57.77 290.13 58.15C289.9 58.45 289.67 58.75 289.37 58.98C289.07 59.2 288.69 59.43 288.31 59.58C287.94 59.73 287.48 59.81 287.03 59.81C286.58 59.81 286.12 59.73 285.75 59.66C285.37 59.51 285.14 59.36 284.92 59.13C284.69 58.9 284.54 58.6 284.46 58.3C284.39 58 284.31 57.62 284.31 57.17C284.31 56.79 284.31 56.41 284.39 56.03C284.46 55.66 284.54 55.28 284.69 54.9C284.84 54.52 284.99 54.22 285.22 53.84C285.44 53.54 285.67 53.24 285.97 53.01C286.28 52.79 286.65 52.56 287.03 52.48C287.41 52.33 287.86 52.26 288.31 52.26C288.77 52.26 289.22 52.33 289.6 52.41C289.98 52.56 290.28 52.71 290.43 52.94C290.65 53.16 290.81 53.47 290.96 53.77C290.96 54.07 291.03 54.45 291.03 54.82ZM289.67 54.9C289.67 54.67 289.67 54.45 289.6 54.22C289.52 53.99 289.45 53.84 289.3 53.69C289.14 53.54 288.99 53.47 288.84 53.39C288.62 53.31 288.39 53.31 288.09 53.31C287.79 53.31 287.48 53.39 287.26 53.47C287.03 53.54 286.8 53.69 286.58 53.92C286.35 54.15 286.2 54.3 286.05 54.6C285.9 54.82 285.82 55.13 285.67 55.43C285.6 55.73 285.52 56.03 285.44 56.34C285.44 56.64 285.37 56.94 285.37 57.24C285.37 57.47 285.37 57.69 285.44 57.92C285.52 58.15 285.6 58.3 285.75 58.45C285.9 58.6 286.05 58.68 286.2 58.75C286.43 58.83 286.65 58.83 286.96 58.83C287.26 58.83 287.56 58.75 287.79 58.68C288.01 58.52 288.24 58.45 288.47 58.22C288.69 58.07 288.84 57.85 288.99 57.54C289.14 57.32 289.22 57.01 289.37 56.71C289.45 56.41 289.52 56.11 289.6 55.81C289.67 55.5 289.67 55.2 289.67 54.9ZM297.98 59.43C297.98 59.51 297.98 59.51 297.9 59.51C297.9 59.51 297.83 59.58 297.75 59.58C297.68 59.58 297.6 59.58 297.53 59.66C297.45 59.66 297.37 59.66 297.22 59.66C297.07 59.66 297 59.66 296.92 59.66C296.85 59.66 296.77 59.66 296.77 59.58C296.7 59.58 296.7 59.51 296.7 59.51L296.7 59.43L297.3 56.41L293.9 56.41L293.3 59.43C293.3 59.51 293.3 59.51 293.22 59.51L293.15 59.58C293.07 59.58 293 59.58 292.92 59.66C292.84 59.66 292.69 59.66 292.62 59.66C292.47 59.66 292.39 59.66 292.32 59.66C292.24 59.66 292.16 59.66 292.16 59.58C292.09 59.58 292.09 59.51 292.09 59.51L292.09 59.43L293.45 52.56C293.45 52.48 293.45 52.48 293.52 52.48C293.52 52.48 293.6 52.41 293.68 52.41C293.75 52.41 293.83 52.33 293.9 52.33C293.98 52.33 294.13 52.33 294.2 52.33C294.35 52.33 294.43 52.33 294.51 52.33C294.58 52.33 294.66 52.33 294.66 52.41C294.73 52.41 294.73 52.48 294.73 52.48L294.73 52.56L294.2 55.35L297.6 55.35L298.13 52.56C298.13 52.48 298.13 52.48 298.21 52.48L298.28 52.41C298.36 52.41 298.43 52.33 298.51 52.33C298.58 52.33 298.73 52.33 298.81 52.33C298.96 52.33 299.04 52.33 299.11 52.33C299.19 52.33 299.26 52.33 299.26 52.41L299.34 52.48L299.34 52.56L297.98 59.43ZM310.44 59.43C310.44 59.51 310.44 59.51 310.36 59.51C310.36 59.51 310.29 59.58 310.21 59.58C310.14 59.58 310.06 59.58 309.98 59.66C309.91 59.66 309.83 59.66 309.68 59.66C309.53 59.66 309.46 59.66 309.38 59.66C309.3 59.66 309.23 59.66 309.15 59.58C309.08 59.58 309.08 59.51 309.08 59.51L309.08 59.43L309.91 55.2C309.91 55.05 309.98 54.9 309.98 54.82C309.98 54.67 309.98 54.52 309.98 54.45C309.98 54.15 309.91 53.84 309.76 53.69C309.61 53.47 309.38 53.39 309.08 53.39C308.78 53.39 308.55 53.47 308.25 53.62C308.02 53.77 307.72 53.99 307.49 54.3C307.27 54.6 307.04 54.9 306.81 55.28C306.66 55.66 306.51 56.03 306.36 56.49L305.76 59.58C305.76 59.66 305.76 59.66 305.68 59.66C305.68 59.66 305.6 59.73 305.53 59.73C305.45 59.73 305.38 59.73 305.3 59.81C305.23 59.81 305.08 59.81 305 59.81C304.85 59.81 304.77 59.81 304.7 59.81C304.62 59.81 304.55 59.81 304.55 59.73C304.47 59.73 304.47 59.66 304.47 59.66L304.47 59.58L305.3 55.35C305.38 55.2 305.38 55.05 305.38 54.9C305.38 54.75 305.38 54.6 305.38 54.45C305.38 54.15 305.3 53.92 305.15 53.69C305 53.54 304.77 53.39 304.47 53.39C304.25 53.39 303.94 53.47 303.64 53.62C303.34 53.77 303.11 53.99 302.89 54.3C302.66 54.6 302.43 54.9 302.21 55.28C301.98 55.66 301.91 56.03 301.83 56.49L301.23 59.58C301.23 59.66 301.23 59.66 301.15 59.66L301.07 59.73C301 59.73 300.92 59.73 300.85 59.81C300.77 59.81 300.7 59.81 300.55 59.81C300.4 59.81 300.32 59.81 300.24 59.81C300.17 59.81 300.09 59.81 300.02 59.73L299.94 59.66L299.94 59.58L301.3 52.71C301.3 52.64 301.3 52.64 301.3 52.64L301.38 52.56C301.45 52.56 301.45 52.48 301.53 52.48C301.6 52.48 301.68 52.48 301.75 52.48C301.83 52.48 301.98 52.48 301.98 52.48C302.06 52.48 302.13 52.48 302.13 52.56L302.21 52.64L302.21 52.71L301.98 53.99C302.06 53.84 302.21 53.62 302.36 53.47C302.51 53.24 302.74 53.09 302.96 52.94C303.19 52.79 303.42 52.64 303.72 52.56C304.02 52.48 304.25 52.41 304.55 52.41C304.85 52.41 305.15 52.48 305.3 52.56C305.53 52.64 305.68 52.79 305.83 52.94C305.98 53.09 306.06 53.24 306.13 53.47C306.21 53.69 306.21 53.92 306.28 54.15C306.36 53.99 306.51 53.77 306.74 53.62C306.89 53.39 307.12 53.24 307.34 53.09C307.57 52.94 307.79 52.79 308.1 52.71C308.4 52.64 308.63 52.56 308.93 52.56C309.3 52.56 309.53 52.64 309.76 52.71C309.98 52.79 310.21 52.94 310.29 53.09C310.44 53.24 310.51 53.47 310.59 53.69C310.66 53.92 310.66 54.15 310.66 54.45C310.66 54.6 310.66 54.82 310.66 54.98C310.66 55.13 310.59 55.35 310.59 55.5L310.44 59.43ZM318.44 59.43C318.44 59.51 318.37 59.58 318.29 59.58C318.21 59.58 318.06 59.66 317.84 59.66C317.76 59.66 317.69 59.66 317.61 59.66C317.53 59.66 317.46 59.66 317.46 59.66C317.38 59.66 317.38 59.58 317.38 59.58L317.38 59.51L317.61 58.22C317.53 58.37 317.46 58.6 317.23 58.75C317.08 58.98 316.86 59.13 316.63 59.28C316.4 59.43 316.1 59.58 315.8 59.66C315.5 59.73 315.19 59.81 314.89 59.81C314.51 59.81 314.14 59.73 313.91 59.58C313.68 59.43 313.46 59.28 313.31 58.98C313.16 58.75 313.08 58.45 313 58.15C312.93 57.85 312.93 57.54 312.93 57.24C312.93 56.94 312.93 56.64 313 56.26C313.08 55.88 313.16 55.5 313.23 55.13C313.38 54.75 313.53 54.37 313.68 53.99C313.91 53.62 314.06 53.31 314.36 53.01C314.67 52.71 314.97 52.48 315.35 52.33C315.72 52.18 316.1 52.11 316.55 52.11C317.01 52.11 317.38 52.18 317.76 52.41C318.06 52.56 318.37 52.86 318.59 53.16L318.74 52.48C318.74 52.41 318.82 52.33 318.89 52.33C318.97 52.26 319.12 52.26 319.35 52.26C319.42 52.26 319.5 52.26 319.57 52.26C319.65 52.26 319.72 52.26 319.72 52.33L319.8 52.41L319.8 52.48L318.44 59.43ZM318.21 54.37C317.99 53.99 317.69 53.77 317.46 53.54C317.16 53.39 316.86 53.31 316.55 53.31C316.25 53.31 316.02 53.39 315.8 53.54C315.57 53.69 315.35 53.84 315.19 54.07C315.04 54.3 314.89 54.52 314.74 54.82C314.59 55.13 314.51 55.35 314.44 55.66C314.36 55.96 314.29 56.26 314.29 56.49C314.29 56.79 314.21 57.01 314.21 57.24C314.21 57.39 314.21 57.62 314.21 57.77C314.21 57.92 314.29 58.07 314.36 58.22C314.44 58.37 314.59 58.52 314.67 58.6C314.82 58.68 314.97 58.75 315.19 58.75C315.5 58.75 315.72 58.68 316.02 58.52C316.33 58.37 316.55 58.15 316.78 57.85C317.01 57.54 317.23 57.24 317.46 56.86C317.69 56.49 317.76 56.11 317.91 55.66L318.21 54.37Z" />
	<path id="Layer" fill-rule="evenodd" class="shp1" d="M231.93 24.69C236.59 20.48 238.54 19.13 239.59 19.13C240.04 19.13 241.1 20.25 241.1 20.71C241.1 21.08 241.1 21.46 241.02 21.83C235.61 28.67 236.06 27.32 234.18 30.32C232.76 32.58 230.73 35.51 230.73 38.14C230.73 40.24 231.55 40.84 232.23 40.84C232.53 40.84 233.66 40.84 236.74 38.21C237.26 37.76 237.87 37.16 238.24 37.16C238.39 37.16 238.62 37.31 238.62 37.46C238.62 37.91 236.89 39.64 236.44 40.02C234.11 42.2 231.03 44.22 228.85 44.22C227.8 44.22 226.14 43.25 226.14 40.62C226.14 37.01 228.77 33.25 229.83 31.9C232.3 28.59 232.91 27.84 232.91 27.39C232.91 27.24 232.83 27.09 232.53 27.09C232.08 27.09 230.88 27.84 227.27 31.53C219.53 39.49 219.61 42.8 217.95 42.8C217.35 42.8 216.6 42.57 216.6 41.29C216.6 34.46 223.21 28.22 224.57 24.54C224.57 24.46 224.57 24.39 224.57 24.31C224.57 24.16 224.34 23.94 223.96 23.94C222.46 23.94 217.8 27.99 213.29 33.1C211.12 35.51 208.56 38.81 207.43 40.32C205.71 42.57 205.71 42.2 204.35 42.2C203.38 42.2 203 42.42 203 39.87C203 35.36 205.03 32.43 206.31 31.53C206.98 31.07 209.76 30.17 210.59 30.17C210.66 30.17 210.74 30.17 210.74 30.25C210.74 30.92 207.81 32.5 207.28 37.24C210.59 33.48 215.55 28.07 217.88 25.81C219.31 24.46 226.74 18 228.1 18C229 18 229.75 20.1 229.75 21.08C229.75 23.49 225.02 27.24 221.79 34.98C226.14 30.47 227.42 28.75 231.93 24.69ZM253.27 32.43C253.27 33.03 252.74 33.63 251.92 34.83C251.24 35.88 250.41 36.94 250.41 37.91C250.41 39.04 251.17 39.34 251.69 39.34C252.29 39.34 252.89 38.96 254.25 38.14C254.82 37.73 255.18 37.42 255.45 37.3C255.45 37.27 255.45 37.26 255.45 37.24C255.75 36.33 259.81 33.25 262.81 29.65C265.52 26.49 265.67 24.91 267.55 24.91C268.22 24.91 268.67 25.21 268.67 25.51C268.67 25.51 268.67 25.59 268.6 25.59C266.34 27.02 265.89 29.2 262.59 34.53C264.01 33.1 267.92 30.1 269.42 30.1C270.18 30.1 271.15 30.55 271.15 32.05C271.15 34.76 267.47 38.14 265.14 39.72C265.89 40.02 266.57 40.17 267.4 40.17C268.75 40.17 269.8 39.64 270.93 38.74C271.6 38.21 271.83 37.61 272.13 37.61C272.28 37.61 272.43 37.69 272.43 37.84C272.43 38.14 272.2 38.59 270.93 39.87C268.45 42.2 264.84 43.17 262.51 43.17C261.31 43.17 259.88 42.72 258.68 41.74C255.6 48.28 255.37 50.39 254.17 50.39C253.64 50.39 253.34 49.63 253.34 48.81C253.34 48.06 254.1 45.2 254.4 44.15C255.15 42.72 256.27 41.29 257.78 40.02L261.99 32.28L256.5 37.16C256.05 37.61 255.9 37.69 255.75 37.69L255.74 37.69C255.51 38.08 254.78 38.79 253.57 39.94C251.92 41.59 250.41 42.8 249.06 42.8C248.16 42.8 247.11 42.2 247.11 40.92C247.11 39.19 247.86 38.14 248.54 36.41C243.2 41.82 241.92 42.2 241.25 42.2C239.89 42.2 239.14 39.42 239.14 37.84C239.14 35.21 241.77 32.73 244.1 31.22C246.13 29.87 249.66 28.07 251.54 28.07C252.74 28.07 253.27 28.9 253.27 29.35C253.27 29.87 252.59 30.17 252.29 30.62C252.89 31.3 253.27 31.83 253.27 32.43ZM241.85 39.11C242 39.19 242.15 39.11 242.37 39.11C244.63 38.59 249.89 33.93 249.89 32.5C249.89 32.05 249.36 32.05 249.14 32.05C246.06 32.05 241.4 35.36 241.4 38.14C241.4 38.51 241.55 38.96 241.85 39.11ZM261.91 38.66C262.44 38.66 263.04 38.81 263.64 39.19C265.59 37.84 267.25 35.58 267.47 34.61C267.47 34.46 267.55 34.23 267.47 34.08C267.4 33.78 267.02 33.48 266.57 33.48C265.07 33.48 261.99 36.63 260.26 38.96C260.78 38.81 261.38 38.66 261.91 38.66ZM273.78 41.89C273.71 41.97 273.56 42.12 273.48 42.12C273.18 42.12 272.66 41.07 272.66 38.36C272.66 36.26 272.96 35.13 274.98 31.75C275.36 31.15 277.46 28.07 278.14 28.07C278.67 28.07 279.04 29.57 279.04 30.55C279.04 31.83 278.67 31.22 276.71 33.85C275.81 35.06 274.98 36.11 274.98 37.31C274.98 37.54 274.98 37.76 275.06 37.99C278.59 33.48 284.23 29.05 286.26 29.05C286.56 29.05 287.46 29.42 287.46 30.85C287.46 32.13 287.31 34.16 285.88 35.36C285.13 35.43 283.63 34.91 283.63 34.23C283.63 34.08 283.78 33.93 283.93 33.85C284.08 33.7 284.38 33.55 284.53 33.1C284.53 32.95 284.53 32.8 284.53 32.73C284.45 32.58 284.23 32.43 283.93 32.43C282.5 32.43 279.64 35.43 278.74 36.41C281.37 37.24 281.6 40.17 283.33 40.17C285.58 40.17 285.13 37.39 288.06 37.39C288.21 37.39 288.36 37.54 288.36 37.76C288.36 38.36 285.88 40.84 285.35 41.22C284.75 41.67 282.87 43.02 281.45 43.02C277.61 43.02 280.62 39.87 276.64 38.36L273.78 41.89ZM293.62 40.02C294.07 40.02 295.05 39.94 297.23 38.51C298.95 37.39 299.26 36.94 299.56 36.94C299.71 36.94 299.78 37.09 299.78 37.46C299.78 38.06 297.6 39.94 296.93 40.54C295.2 42.05 293.85 43.17 291.82 43.17C290.09 43.17 288.36 41.82 288.36 39.04C288.36 34.38 293.7 28.59 297.6 28.59C299.41 28.59 299.71 29.8 299.71 30.32C299.71 32.8 294.97 36.48 291.52 37.09C291.44 38.06 291.59 40.02 293.62 40.02ZM296.7 31.53C296.7 30.92 296.55 30.62 295.95 30.62C294.3 30.62 292.12 33.7 291.52 35.96C292.87 35.51 296.7 33.25 296.7 31.53ZM309.32 27.99C309.32 25.29 317.29 22.96 319.84 22.96C321.57 22.96 322.25 23.86 321.95 24.46L320.9 26.19C320.14 25.81 319.32 25.74 317.89 25.74C315.94 25.74 311.5 27.02 309.7 29.5C309.4 29.2 309.32 28.82 309.32 27.99ZM313.16 29.95C314.36 29.95 314.28 30.85 314.28 31.3C314.28 31.9 314.06 32.28 313.76 32.8C312.18 35.81 311.35 36.03 311.35 36.56C311.35 36.63 311.43 36.86 311.58 36.86C311.95 36.86 312.56 35.96 315.56 33.63C316.01 33.25 319.69 30.7 320.52 30.7C321.27 30.7 321.72 32.05 321.72 32.8C321.72 33.48 320.75 34.01 319.77 35.06C319.09 35.81 317.97 37.46 317.97 38.44C317.97 39.11 318.27 39.49 319.02 39.49C321.57 39.49 319.84 37.39 322.77 37.39C322.85 37.39 323 37.46 323 37.54C323 37.61 323 37.76 323 37.84C322.55 39.42 317.44 43.17 315.94 43.17C315.34 43.17 314.28 42.87 314.28 41.67C314.28 41.07 314.28 40.17 315.11 38.51C315.86 37.09 316.46 36.26 316.46 35.88C316.46 35.73 316.31 35.66 316.16 35.66C315.64 35.66 312.86 38.06 312.41 38.51C310.45 40.39 308.95 42.2 307.82 42.2C307.45 42.2 306.99 41.82 306.99 40.99C306.99 40.84 306.99 40.09 308.05 38.44C309.17 36.63 309.62 36.11 309.62 35.73C309.62 35.51 309.47 35.13 308.87 35.13C307.82 35.13 306.62 36.18 304.67 38.21C302.86 40.09 302.19 42.12 301.21 42.12C300.76 42.12 299.78 41.67 299.78 38.74C299.78 36.26 300.31 35.66 301.96 33.55C303.24 31.9 304.06 30.77 305.79 30.77C306.39 30.77 306.62 31.15 306.62 31.45C306.62 32.05 305.42 33.03 304.52 34.16C303.31 35.58 302.34 36.41 302.34 37.16C302.34 37.46 302.49 37.99 302.56 38.21C304.52 36.18 311.35 29.95 313.16 29.95Z" />
	<text id=" " style="transform: matrix(1,0,0,1,309,9)" >
		<tspan x="0" y="14.56" class="txt2">	</tspan>
	</text>
</svg>